{"glyphs":{"0":{"ha":868,"x_min":49,"x_max":819,"o":"m 433 -12 q 164 95 279 -12 q 49 364 49 203 q 163 631 49 525 q 433 738 278 738 q 704 631 589 738 q 819 364 819 525 q 704 95 819 203 q 433 -12 589 -12 m 300 212 q 326 183 300 212 q 433 154 353 154 q 567 212 514 154 q 621 364 621 269 q 568 515 621 458 q 433 571 515 571 q 300 515 353 571 q 247 364 247 458 q 300 212 247 269 z "},"1":{"ha":460,"x_min":36,"x_max":365,"o":"m 175 0 l 175 569 l 36 569 l 36 725 l 365 725 l 365 0 l 175 0 z "},"2":{"ha":668,"x_min":29,"x_max":624,"o":"m 29 0 l 29 17 l 306 310 q 374 383 357 364 q 406 431 390 401 q 422 489 422 460 q 398 547 422 525 q 335 568 374 568 q 214 457 251 568 l 39 504 q 144 676 64 614 q 333 738 224 738 q 544 669 471 738 q 617 501 617 600 q 471 239 617 394 l 450 217 q 418 188 439 204 q 382 163 397 172 l 367 153 q 463 160 438 160 l 624 160 l 624 0 l 29 0 z "},"3":{"ha":728,"x_min":22,"x_max":682,"o":"m 347 -143 q 22 51 118 -143 l 185 136 q 347 24 228 24 q 444 62 406 24 q 483 167 483 100 q 439 269 483 232 q 326 307 394 307 q 207 282 254 307 l 193 299 l 354 522 q 376 549 364 536 q 397 569 389 563 l 404 576 q 319 569 360 569 l 100 569 l 100 725 l 668 725 l 668 710 l 496 474 l 458 432 q 617 342 553 413 q 682 163 682 271 q 594 -53 682 38 q 347 -143 507 -143 z "},"4":{"ha":769,"x_min":35,"x_max":721,"o":"m 625 144 l 721 144 l 721 0 l 625 0 l 625 -131 l 436 -131 l 436 0 l 35 0 l 35 128 l 606 733 l 625 733 l 625 144 m 436 144 l 436 267 l 443 353 q 396 296 421 322 l 296 190 l 239 140 q 311 144 272 144 l 436 144 z "},"5":{"ha":704,"x_min":22,"x_max":658,"o":"m 333 -143 q 134 -90 214 -143 q 22 40 54 -37 l 186 122 q 331 24 224 24 q 424 60 389 24 q 458 150 458 96 q 421 244 458 208 q 313 279 383 279 q 128 211 213 279 l 111 218 l 111 725 l 583 725 l 583 569 l 267 569 l 267 417 q 368 438 300 438 q 578 354 497 438 q 658 149 658 271 q 574 -60 658 24 q 333 -143 490 -143 z "},"6":{"ha":739,"x_min":49,"x_max":690,"o":"m 371 -12 q 142 69 236 -12 q 49 276 49 150 q 77 417 49 350 q 165 565 106 483 l 368 846 l 579 846 l 408 611 q 373 572 394 593 q 336 539 351 550 l 321 526 q 425 550 368 550 q 615 476 539 550 q 690 281 690 403 q 599 67 690 147 q 371 -12 507 -12 m 276 190 q 293 172 276 190 q 369 153 311 153 q 463 190 428 153 q 499 281 499 228 q 463 371 499 333 q 369 408 428 408 q 276 371 311 408 q 240 281 240 333 q 276 190 240 228 z "},"7":{"ha":675,"x_min":40,"x_max":639,"o":"m 81 -131 l 388 569 l 40 569 l 40 725 l 639 725 l 639 710 l 274 -131 l 81 -131 z "},"8":{"ha":750,"x_min":49,"x_max":701,"o":"m 375 -14 q 141 64 233 -14 q 49 263 49 142 q 93 401 49 344 q 213 486 138 457 q 114 643 114 542 q 185 793 114 728 q 376 858 257 858 q 566 793 496 858 q 636 643 636 728 q 539 486 636 540 q 701 263 701 425 q 610 63 701 140 q 375 -14 519 -14 m 376 554 q 430 575 408 554 q 451 629 451 596 q 431 683 451 663 q 376 704 410 704 q 321 683 343 704 q 299 629 299 663 q 321 575 299 596 q 376 554 343 554 m 281 188 q 298 170 281 188 q 375 153 315 153 q 469 188 435 153 q 504 278 504 224 q 469 371 504 333 q 375 408 433 408 q 281 371 317 408 q 246 278 246 333 q 281 188 246 224 z "},"9":{"ha":739,"x_min":49,"x_max":690,"o":"m 158 -131 l 331 114 q 367 156 344 135 q 403 188 389 176 l 418 199 q 322 174 368 174 q 126 248 204 174 q 49 444 49 322 q 140 658 49 578 q 368 738 232 738 q 597 659 504 738 q 690 449 690 581 q 663 311 690 375 q 574 160 635 247 l 369 -131 l 158 -131 m 276 354 q 293 335 276 354 q 369 317 311 317 q 463 354 428 317 q 499 444 499 392 q 463 535 499 497 q 369 572 428 572 q 276 535 311 572 q 240 444 240 497 q 276 354 240 392 z "},"\u0000":{"ha":694,"x_min":0,"x_max":0,"o":""},"ˈ":{"ha":694,"x_min":0,"x_max":0,"o":""},"ν":{"ha":694,"x_min":0,"x_max":0,"o":""},"ξ":{"ha":694,"x_min":0,"x_max":0,"o":""},"ο":{"ha":694,"x_min":0,"x_max":0,"o":""},"―":{"ha":694,"x_min":0,"x_max":0,"o":""},"‖":{"ha":694,"x_min":0,"x_max":0,"o":""},"‗":{"ha":694,"x_min":0,"x_max":0,"o":""},"‛":{"ha":694,"x_min":0,"x_max":0,"o":""},"‟":{"ha":694,"x_min":0,"x_max":0,"o":""},"‣":{"ha":694,"x_min":0,"x_max":0,"o":""},"․":{"ha":694,"x_min":0,"x_max":0,"o":""},"‥":{"ha":694,"x_min":0,"x_max":0,"o":""},"℣":{"ha":694,"x_min":0,"x_max":0,"o":""},"ℤ":{"ha":694,"x_min":0,"x_max":0,"o":""},"℥":{"ha":694,"x_min":0,"x_max":0,"o":""},"∃":{"ha":694,"x_min":0,"x_max":0,"o":""},"∄":{"ha":694,"x_min":0,"x_max":0,"o":""},"∅":{"ha":694,"x_min":0,"x_max":0,"o":""},"∐":{"ha":694,"x_min":0,"x_max":0,"o":""},"∓":{"ha":694,"x_min":0,"x_max":0,"o":""},"∔":{"ha":694,"x_min":0,"x_max":0,"o":""},"∖":{"ha":694,"x_min":0,"x_max":0,"o":""},"∗":{"ha":694,"x_min":0,"x_max":0,"o":""},"∘":{"ha":694,"x_min":0,"x_max":0,"o":""},"\r":{"ha":307,"x_min":0,"x_max":0,"o":""}," ":{"ha":307,"x_min":0,"x_max":0,"o":""},"!":{"ha":393,"x_min":79,"x_max":314,"o":"m 122 321 l 92 944 l 301 944 l 271 321 l 122 321 m 280 25 q 263 8 280 25 q 197 -8 246 -8 q 114 25 149 -8 q 79 110 79 58 q 114 193 79 160 q 197 226 149 226 q 279 193 244 226 q 314 110 314 160 q 280 25 314 58 z "},"\"":{"ha":567,"x_min":50,"x_max":517,"o":"m 338 601 l 315 944 l 517 944 l 496 601 l 338 601 m 71 601 l 50 944 l 250 944 l 229 601 l 71 601 z "},"#":{"ha":731,"x_min":44,"x_max":686,"o":"m 85 197 l 119 338 l 44 338 l 44 479 l 154 479 l 181 583 l 106 583 l 106 725 l 215 725 l 250 860 l 396 860 l 361 725 l 465 725 l 500 860 l 646 860 l 613 725 l 686 725 l 686 583 l 578 583 l 551 479 l 625 479 l 625 338 l 515 338 l 481 197 l 335 197 l 369 338 l 265 338 l 231 197 l 85 197 m 301 479 l 406 479 l 432 583 l 328 583 l 301 479 z "},"$":{"ha":697,"x_min":19,"x_max":654,"o":"m 303 -10 q 19 160 99 8 l 157 238 q 303 136 207 151 l 303 136 l 303 136 l 303 138 l 303 138 l 303 139 l 303 139 l 303 140 l 303 142 l 303 143 l 303 144 l 303 146 l 303 147 l 303 149 l 303 150 l 303 151 l 303 153 l 303 154 l 303 156 l 303 157 l 303 158 l 303 160 l 303 161 l 303 163 l 303 164 l 303 165 l 303 167 l 303 168 l 303 169 l 303 172 l 303 174 l 303 175 l 303 176 l 303 178 l 303 181 l 303 182 l 303 183 l 303 185 l 303 188 l 303 189 l 303 190 l 303 193 l 303 194 l 303 196 l 303 199 l 303 200 l 303 201 l 303 204 l 303 206 l 303 208 l 303 210 l 303 213 l 303 214 l 303 217 l 303 218 l 303 221 l 303 222 l 303 225 l 303 226 l 303 229 l 303 231 l 303 233 l 303 236 l 303 238 l 303 240 l 303 243 l 303 244 l 303 247 l 303 250 l 303 251 l 303 254 l 303 257 l 303 258 l 303 261 l 303 264 l 303 267 l 303 269 l 303 271 l 303 274 l 303 276 l 303 279 l 303 282 l 303 283 l 303 296 q 61 522 61 353 q 122 668 61 607 q 303 736 183 729 l 303 876 l 396 876 l 396 733 q 608 611 531 713 l 488 519 q 396 588 457 568 l 396 449 q 654 215 654 389 q 396 -11 654 3 l 396 -161 l 303 -161 l 303 -10 m 303 596 q 231 538 231 589 q 244 497 231 513 q 303 471 258 482 l 303 596 m 396 133 q 481 196 481 143 q 396 275 481 251 l 396 133 z "},"%":{"ha":1188,"x_min":35,"x_max":1153,"o":"m 263 301 q 101 363 167 301 q 35 519 35 425 q 101 675 35 613 q 263 738 168 738 q 423 675 357 738 q 489 519 489 613 q 423 363 489 425 q 263 301 357 301 m 272 0 l 731 725 l 915 725 l 457 0 l 272 0 m 926 -12 q 765 49 831 -12 q 699 206 699 111 q 765 361 699 299 q 926 424 832 424 q 1087 361 1021 424 q 1153 206 1153 299 q 1087 49 1153 111 q 926 -12 1021 -12 m 212 463 q 223 452 212 463 q 263 442 233 442 q 313 463 292 442 q 335 519 335 485 q 313 576 335 554 q 263 597 292 597 q 212 576 233 597 q 190 519 190 554 q 212 463 190 485 m 876 149 q 886 139 876 149 q 926 128 897 128 q 977 149 956 128 q 999 206 999 171 q 977 262 999 240 q 926 283 956 283 q 876 262 897 283 q 854 206 854 240 q 876 149 854 171 z "},"&":{"ha":965,"x_min":50,"x_max":936,"o":"m 525 510 l 674 325 q 707 501 707 403 l 882 501 q 789 182 882 317 l 936 0 l 707 0 l 660 58 q 417 -12 550 -12 q 147 65 244 -12 q 50 265 50 142 q 101 425 50 364 q 268 544 151 486 q 203 732 203 633 q 271 891 203 826 q 453 956 339 956 q 631 896 565 956 q 697 736 697 836 q 525 510 697 600 m 433 622 q 528 738 528 675 q 508 788 528 769 q 456 806 489 806 q 402 785 424 806 q 381 735 381 765 q 389 691 381 713 q 404 660 397 669 q 431 626 411 651 l 433 622 m 554 189 l 356 435 q 275 367 297 403 q 253 281 253 331 q 417 156 253 156 q 554 189 492 156 z "},"'":{"ha":300,"x_min":50,"x_max":250,"o":"m 71 601 l 50 944 l 250 944 l 229 601 l 71 601 z "},"(":{"ha":478,"x_min":68,"x_max":443,"o":"m 331 -190 q 68 404 68 64 q 331 999 68 744 l 443 908 q 310 682 354 801 q 265 404 265 563 q 443 -100 265 115 l 331 -190 z "},")":{"ha":478,"x_min":35,"x_max":410,"o":"m 147 -190 l 35 -100 q 168 126 124 7 q 213 404 213 246 q 35 908 213 693 l 147 999 q 410 404 410 744 q 147 -190 410 64 z "},"*":{"ha":590,"x_min":58,"x_max":532,"o":"m 213 500 l 253 654 l 139 540 l 58 679 l 215 722 l 58 765 l 139 904 l 253 790 l 213 944 l 376 944 l 336 790 l 450 904 l 532 765 l 371 722 l 532 679 l 450 540 l 336 654 l 376 500 l 213 500 z "},"+":{"ha":571,"x_min":54,"x_max":517,"o":"m 201 135 l 201 288 l 54 288 l 54 451 l 201 451 l 201 604 l 369 604 l 369 451 l 517 451 l 517 288 l 369 288 l 369 135 l 201 135 z "},",":{"ha":346,"x_min":56,"x_max":290,"o":"m 72 -160 l 125 7 q 56 113 56 39 q 90 194 56 161 q 174 226 125 226 q 256 193 221 226 q 290 110 290 160 q 249 -8 290 67 l 167 -160 l 72 -160 z "},"-":{"ha":419,"x_min":50,"x_max":369,"o":"m 50 253 l 50 419 l 369 419 l 369 253 l 50 253 z "},"­":{"ha":419,"x_min":50,"x_max":369,"o":"m 50 253 l 50 419 l 369 419 l 369 253 l 50 253 z "},".":{"ha":346,"x_min":56,"x_max":290,"o":"m 256 25 q 239 8 256 25 q 174 -8 222 -8 q 90 25 125 -8 q 56 110 56 58 q 90 193 56 160 q 174 226 125 226 q 256 193 221 226 q 290 110 290 160 q 256 25 290 58 z "},"/":{"ha":561,"x_min":-22,"x_max":549,"o":"m -22 -178 l 365 1003 l 549 1003 l 161 -178 l -22 -178 z "},":":{"ha":360,"x_min":63,"x_max":297,"o":"m 263 344 q 246 328 263 344 q 181 311 229 311 q 97 344 132 311 q 63 429 63 378 q 97 513 63 479 q 181 546 132 546 q 263 513 228 546 q 297 429 297 479 q 263 344 297 378 m 263 25 q 246 8 263 25 q 181 -8 229 -8 q 97 25 132 -8 q 63 110 63 58 q 97 193 63 160 q 181 226 132 226 q 263 193 228 226 q 297 110 297 160 q 263 25 297 58 z "},";":{"ha":360,"x_min":63,"x_max":297,"o":"m 263 344 q 246 328 263 344 q 181 311 229 311 q 97 344 132 311 q 63 429 63 378 q 97 513 63 479 q 181 546 132 546 q 263 513 228 546 q 297 429 297 479 q 263 344 297 378 m 79 -160 l 132 7 q 63 113 63 39 q 97 194 63 161 q 181 226 132 226 q 263 193 228 226 q 297 110 297 160 q 256 -8 297 67 l 174 -160 l 79 -160 z "},";":{"ha":360,"x_min":63,"x_max":297,"o":"m 263 344 q 246 328 263 344 q 181 311 229 311 q 97 344 132 311 q 63 429 63 378 q 97 513 63 479 q 181 546 132 546 q 263 513 228 546 q 297 429 297 479 q 263 344 297 378 m 79 -160 l 132 7 q 63 113 63 39 q 97 194 63 161 q 181 226 132 226 q 263 193 228 226 q 297 110 297 160 q 256 -8 297 67 l 174 -160 l 79 -160 z "},"<":{"ha":497,"x_min":32,"x_max":446,"o":"m 446 100 l 32 332 l 32 346 l 446 575 l 446 413 l 297 338 l 446 263 l 446 100 z "},"=":{"ha":563,"x_min":50,"x_max":513,"o":"m 50 388 l 50 547 l 513 547 l 513 388 l 50 388 m 50 160 l 50 319 l 513 319 l 513 160 l 50 160 z "},">":{"ha":497,"x_min":51,"x_max":465,"o":"m 51 100 l 51 263 l 200 338 l 51 413 l 51 575 l 465 343 l 465 329 l 51 100 z "},"?":{"ha":713,"x_min":47,"x_max":653,"o":"m 242 321 l 242 542 l 306 542 q 424 579 386 542 q 461 674 461 617 q 428 755 461 719 q 344 790 396 790 q 258 768 290 790 q 197 700 225 746 l 47 788 q 344 957 125 957 q 569 874 486 957 q 653 674 653 790 q 592 490 653 561 q 417 403 531 419 l 417 321 l 242 321 m 410 25 q 393 8 410 25 q 328 -8 376 -8 q 244 25 279 -8 q 210 110 210 58 q 244 193 210 160 q 328 226 279 226 q 410 193 375 226 q 444 110 444 160 q 410 25 444 58 z "},"@":{"ha":1285,"x_min":54,"x_max":1231,"o":"m 663 -287 q 225 -136 396 -287 q 54 274 54 15 q 138 572 54 440 q 359 774 222 704 q 654 844 496 844 q 1072 703 913 844 q 1231 328 1231 561 q 1164 79 1231 165 q 974 -7 1097 -7 q 781 100 825 -7 q 592 -12 724 -12 q 418 65 488 -12 q 349 264 349 143 q 418 464 349 385 q 589 543 488 543 q 739 460 693 543 l 736 529 l 917 529 l 917 217 q 931 150 917 171 q 981 129 946 129 q 1072 325 1072 129 q 963 610 1072 517 q 654 703 853 703 q 344 585 463 703 q 225 275 225 468 q 338 -33 225 79 q 660 -146 451 -146 q 881 -107 771 -146 l 939 -237 q 663 -287 813 -287 m 644 139 q 713 175 686 139 q 740 264 740 211 q 713 353 740 317 q 644 389 686 389 q 569 355 597 389 q 540 264 540 321 q 569 173 540 207 q 644 139 597 139 z "},"A":{"ha":922,"x_min":29,"x_max":893,"o":"m 29 0 l 444 953 l 461 953 l 893 0 l 689 0 l 644 107 l 261 107 l 217 0 l 29 0 m 326 269 l 575 269 l 507 433 q 481 505 494 463 q 458 575 467 547 l 450 603 q 394 433 422 500 l 326 269 z "},"B":{"ha":847,"x_min":99,"x_max":797,"o":"m 99 0 l 99 944 l 464 944 q 665 874 592 944 q 739 700 739 804 q 606 526 739 569 q 797 292 797 481 q 712 81 797 163 q 481 0 626 0 l 99 0 m 293 596 l 443 596 q 519 620 490 596 q 547 685 547 644 q 522 750 547 726 q 453 774 497 774 l 293 774 l 293 596 m 293 171 l 472 171 q 566 207 531 171 q 601 301 601 243 q 564 395 601 360 q 461 431 526 431 l 293 431 l 293 171 z "},"C":{"ha":993,"x_min":67,"x_max":947,"o":"m 553 -12 q 208 126 349 -12 q 67 472 67 264 q 207 818 67 681 q 553 956 347 956 q 931 763 807 956 l 782 657 q 553 781 706 781 q 347 693 426 781 q 267 472 267 606 q 347 250 267 339 q 553 161 426 161 q 695 197 639 161 q 796 300 751 233 l 947 196 q 553 -12 814 -12 z "},"D":{"ha":951,"x_min":99,"x_max":886,"o":"m 99 0 l 99 944 l 389 944 q 747 813 607 944 q 886 472 886 681 q 747 132 886 264 q 389 0 608 0 l 99 0 m 293 171 l 379 171 q 608 253 531 171 q 685 472 685 335 q 608 692 685 610 q 379 774 531 774 l 293 774 l 293 171 z "},"E":{"ha":825,"x_min":99,"x_max":743,"o":"m 99 0 l 99 944 l 724 944 l 724 774 l 293 774 l 293 474 l 672 474 l 672 307 l 293 307 l 293 171 l 743 171 l 743 0 l 99 0 z "},"F":{"ha":772,"x_min":99,"x_max":707,"o":"m 99 0 l 99 944 l 707 944 l 707 774 l 293 774 l 293 461 l 669 461 l 669 288 l 293 288 l 293 0 l 99 0 z "},"G":{"ha":1026,"x_min":67,"x_max":942,"o":"m 579 -12 q 208 124 350 -12 q 67 472 67 261 q 201 819 67 683 q 549 956 336 956 q 892 825 778 956 l 760 694 q 672 758 719 736 q 549 781 625 781 q 344 694 422 781 q 267 472 267 607 q 350 249 267 336 q 579 161 433 161 q 764 196 693 161 l 764 335 l 536 335 l 536 506 l 942 506 l 942 97 q 794 22 892 56 q 579 -12 696 -12 z "},"H":{"ha":990,"x_min":99,"x_max":892,"o":"m 99 0 l 99 944 l 293 944 l 293 461 l 697 461 l 697 944 l 892 944 l 892 0 l 697 0 l 697 288 l 293 288 l 293 0 l 99 0 z "},"I":{"ha":399,"x_min":103,"x_max":297,"o":"m 103 0 l 103 944 l 297 944 l 297 0 l 103 0 z "},"J":{"ha":689,"x_min":18,"x_max":600,"o":"m 310 -12 q 18 165 101 -12 l 176 261 q 208 209 196 226 q 245 176 221 192 q 301 161 269 161 q 379 188 353 161 q 406 283 406 214 l 406 944 l 600 944 l 600 281 q 522 61 600 135 q 310 -12 444 -12 z "},"K":{"ha":901,"x_min":99,"x_max":871,"o":"m 281 460 q 361 607 324 557 l 611 944 l 832 944 l 515 517 l 871 0 l 636 0 l 385 371 l 293 261 l 293 0 l 99 0 l 99 944 l 293 944 l 293 618 q 281 460 293 567 z "},"L":{"ha":779,"x_min":99,"x_max":721,"o":"m 99 0 l 99 944 l 293 944 l 293 171 l 721 171 l 721 0 l 99 0 z "},"M":{"ha":1153,"x_min":99,"x_max":1054,"o":"m 99 0 l 99 954 l 114 954 l 579 443 l 1038 954 l 1054 954 l 1054 0 l 867 0 l 867 354 l 874 519 q 772 386 817 436 l 585 176 l 567 176 l 379 386 q 334 442 360 408 q 293 497 308 475 l 278 519 q 285 354 285 418 l 285 0 l 99 0 z "},"N":{"ha":974,"x_min":99,"x_max":875,"o":"m 856 -8 l 379 439 q 330 491 358 458 q 283 546 301 524 l 267 568 q 281 396 281 464 l 281 0 l 99 0 l 99 953 l 118 953 l 594 506 q 643 454 615 486 q 689 400 671 422 l 706 376 q 693 549 693 483 l 693 944 l 875 944 l 875 -8 l 856 -8 z "},"O":{"ha":1111,"x_min":67,"x_max":1044,"o":"m 903 126 q 832 57 903 126 q 556 -12 761 -12 q 208 126 350 -12 q 67 472 67 264 q 208 819 67 681 q 556 957 350 957 q 903 819 761 957 q 1044 472 1044 681 q 903 126 1044 264 m 347 250 q 388 206 347 250 q 556 161 428 161 q 764 250 683 161 q 844 472 844 339 q 764 694 844 606 q 556 783 683 783 q 347 694 428 783 q 267 472 267 606 q 347 250 267 339 z "},"P":{"ha":835,"x_min":99,"x_max":782,"o":"m 99 0 l 99 944 l 360 944 q 669 847 557 944 q 782 579 782 750 q 669 312 782 408 q 360 215 557 215 l 293 215 l 293 0 l 99 0 m 293 386 l 354 386 q 527 434 472 386 q 582 579 582 482 q 354 774 582 774 l 293 774 l 293 386 z "},"Q":{"ha":1111,"x_min":67,"x_max":1044,"o":"m 911 133 l 1043 -18 l 914 -125 l 774 36 q 556 -12 669 -12 q 208 126 350 -12 q 67 472 67 264 q 208 819 67 681 q 556 957 350 957 q 903 819 761 957 q 1044 472 1044 681 q 911 133 1044 271 m 651 175 l 539 304 l 669 411 l 789 274 q 844 472 844 353 q 764 694 844 606 q 556 783 683 783 q 347 694 428 783 q 267 472 267 606 q 347 250 267 339 q 556 161 428 161 q 651 175 610 161 z "},"R":{"ha":853,"x_min":99,"x_max":796,"o":"m 600 294 l 796 0 l 571 0 l 415 239 q 360 235 389 235 l 293 235 l 293 0 l 99 0 l 99 944 l 360 944 q 671 852 560 944 q 782 588 782 760 q 600 294 782 376 m 293 404 l 354 404 q 528 447 475 404 q 582 588 582 489 q 527 730 582 686 q 354 774 472 774 l 293 774 l 293 404 z "},"S":{"ha":746,"x_min":17,"x_max":693,"o":"m 371 -12 q 152 42 242 -12 q 17 186 63 96 l 175 278 q 367 160 247 160 q 463 187 426 160 q 499 256 499 214 q 479 311 499 288 q 435 348 460 335 q 357 385 411 361 l 308 406 q 134 522 193 456 q 75 699 75 588 q 153 883 75 810 q 360 956 232 956 q 522 919 454 956 q 636 800 589 882 l 485 703 q 360 786 439 786 q 292 763 318 786 q 267 703 267 739 q 293 638 267 661 q 386 585 319 614 l 435 564 q 631 440 569 506 q 693 258 693 374 q 603 59 693 131 q 371 -12 514 -12 z "},"T":{"ha":822,"x_min":44,"x_max":778,"o":"m 314 0 l 314 774 l 44 774 l 44 944 l 778 944 l 778 774 l 508 774 l 508 0 l 314 0 z "},"U":{"ha":953,"x_min":94,"x_max":858,"o":"m 478 -12 q 201 78 307 -12 q 94 342 94 169 l 94 944 l 289 944 l 289 353 q 334 207 289 251 q 478 163 379 163 q 619 207 575 163 q 664 353 664 251 l 664 944 l 858 944 l 858 342 q 753 78 858 169 q 478 -12 647 -12 z "},"V":{"ha":922,"x_min":29,"x_max":893,"o":"m 460 -8 l 29 944 l 238 944 l 400 581 q 435 491 417 544 q 464 403 453 438 l 474 367 q 546 581 510 499 l 704 944 l 893 944 l 479 -8 l 460 -8 z "},"W":{"ha":1331,"x_min":31,"x_max":1301,"o":"m 379 -8 l 31 944 l 236 944 l 374 565 l 424 394 q 482 565 451 501 l 664 953 l 683 953 l 868 565 q 897 494 882 538 q 919 422 911 451 l 926 394 q 976 565 953 500 l 1113 944 l 1301 944 l 958 -8 l 939 -8 l 726 447 q 702 506 715 471 q 681 564 689 540 l 674 588 q 619 447 644 500 l 399 -8 l 379 -8 z "},"X":{"ha":917,"x_min":38,"x_max":882,"o":"m 38 0 l 346 519 l 89 944 l 310 944 l 406 782 q 433 728 418 761 q 458 675 449 696 l 468 653 q 522 782 494 733 l 614 944 l 821 944 l 568 518 l 882 0 l 660 0 l 511 251 q 482 307 499 274 q 456 363 465 340 l 446 385 q 388 251 417 301 l 242 0 l 38 0 z "},"Y":{"ha":947,"x_min":29,"x_max":919,"o":"m 388 0 l 388 300 l 29 944 l 244 944 l 411 640 q 447 566 428 611 q 476 492 465 521 l 488 461 q 561 640 525 572 l 721 944 l 919 944 l 583 314 l 583 0 l 388 0 z "},"Z":{"ha":819,"x_min":38,"x_max":771,"o":"m 38 0 l 38 17 l 471 774 l 114 774 l 114 944 l 771 944 l 771 928 l 339 171 l 747 171 l 747 0 l 38 0 z "},"[":{"ha":468,"x_min":83,"x_max":426,"o":"m 83 -178 l 83 1003 l 426 1003 l 426 844 l 271 844 l 271 -19 l 426 -19 l 426 -178 l 83 -178 z "},"\\":{"ha":561,"x_min":13,"x_max":583,"o":"m 400 -178 l 13 1003 l 196 1003 l 583 -178 l 400 -178 z "},"]":{"ha":468,"x_min":42,"x_max":385,"o":"m 42 -178 l 42 -19 l 197 -19 l 197 844 l 42 844 l 42 1003 l 385 1003 l 385 -178 l 42 -178 z "},"^":{"ha":610,"x_min":75,"x_max":535,"o":"m 75 621 l 297 954 l 313 954 l 535 621 l 385 621 l 304 719 l 225 621 l 75 621 z "},"_":{"ha":393,"x_min":-3,"x_max":396,"o":"m -3 -178 l -3 -11 l 396 -11 l 396 -178 l -3 -178 z "},"`":{"ha":694,"x_min":131,"x_max":417,"o":"m 275 694 l 131 956 l 344 956 l 417 694 l 275 694 z "},"a":{"ha":678,"x_min":43,"x_max":608,"o":"m 422 351 q 324 450 418 450 q 189 396 250 450 l 85 507 q 190 579 133 554 q 342 604 246 604 q 535 537 461 604 q 608 336 608 469 l 608 0 l 422 0 l 426 82 q 251 -12 365 -12 q 102 33 161 -12 q 43 174 43 78 q 285 351 43 351 l 422 351 m 422 240 l 294 240 q 226 186 226 240 q 307 133 226 133 q 392 156 363 133 q 422 217 422 178 l 422 240 z "},"b":{"ha":765,"x_min":74,"x_max":711,"o":"m 443 -12 q 257 86 310 -12 l 261 0 l 74 0 l 74 1003 l 261 1003 l 261 508 q 447 604 325 604 q 635 518 558 604 q 711 297 711 432 q 633 76 711 164 q 443 -12 554 -12 m 389 151 q 483 190 449 151 q 518 297 518 228 q 483 401 518 363 q 389 439 449 439 q 292 401 328 439 q 256 297 256 363 q 292 190 256 228 q 389 151 328 151 z "},"c":{"ha":663,"x_min":53,"x_max":625,"o":"m 376 -12 q 145 74 238 -12 q 53 297 53 161 q 145 517 53 431 q 376 604 238 604 q 625 486 531 604 l 492 378 q 443 423 475 406 q 376 440 411 440 q 279 401 314 440 q 244 297 244 361 q 279 190 244 231 q 376 150 314 150 q 496 206 440 150 l 622 94 q 376 -12 526 -12 z "},"d":{"ha":765,"x_min":54,"x_max":692,"o":"m 322 -12 q 133 76 211 -12 q 54 297 54 164 q 132 517 54 431 q 319 604 210 604 q 504 508 443 604 l 504 1003 l 692 1003 l 692 0 l 504 0 l 508 86 q 322 -12 456 -12 m 376 151 q 474 190 438 151 q 510 297 510 228 q 474 401 510 363 q 376 439 438 439 q 282 401 317 439 q 247 297 247 363 q 282 190 247 228 q 376 151 317 151 z "},"e":{"ha":747,"x_min":53,"x_max":704,"o":"m 244 239 q 397 143 272 143 q 546 190 479 143 l 653 75 q 400 -12 553 -12 q 148 74 243 -12 q 53 297 53 160 q 147 517 53 431 q 379 604 240 604 q 619 501 535 604 q 693 239 704 399 l 244 239 m 242 347 l 504 347 q 381 451 490 451 q 242 347 264 451 z "},"f":{"ha":531,"x_min":43,"x_max":542,"o":"m 142 0 l 142 436 l 43 436 l 43 592 l 142 592 l 142 790 q 360 1021 142 1021 q 542 946 478 1021 l 440 821 q 381 853 414 853 q 329 793 329 853 l 329 592 l 489 592 l 489 436 l 329 436 l 329 0 l 142 0 z "},"g":{"ha":683,"x_min":19,"x_max":664,"o":"m 428 593 l 656 593 l 656 460 l 568 460 q 589 388 589 428 q 521 230 589 292 q 340 168 453 168 q 219 192 267 168 q 204 156 204 179 q 265 108 204 110 l 411 101 q 598 46 532 94 q 664 -89 664 -3 q 585 -249 664 -189 q 338 -308 506 -308 q 101 -255 183 -308 q 19 -114 19 -201 q 128 17 19 -24 q 57 136 57 56 q 139 253 57 217 q 86 388 86 310 q 157 544 86 483 q 340 604 228 604 q 428 593 386 604 m 273 326 q 284 315 273 326 q 338 304 296 304 q 402 326 379 304 q 425 388 425 349 q 402 445 425 424 q 338 467 379 467 q 273 445 296 467 q 250 388 250 424 q 273 326 250 349 m 218 -44 q 201 -90 201 -64 q 338 -168 201 -168 q 472 -103 472 -168 q 451 -67 472 -78 q 374 -54 431 -57 l 218 -44 z "},"h":{"ha":736,"x_min":74,"x_max":667,"o":"m 74 0 l 74 1003 l 261 1003 l 261 499 q 444 604 317 604 q 605 535 543 604 q 667 342 667 465 l 667 0 l 479 0 l 479 329 q 381 433 479 433 q 292 403 324 433 q 261 317 261 372 l 261 0 l 74 0 z "},"i":{"ha":349,"x_min":56,"x_max":293,"o":"m 258 724 q 241 707 258 724 q 175 690 224 690 q 91 724 126 690 q 56 808 56 757 q 91 892 56 858 q 175 925 126 925 q 258 892 224 925 q 293 808 293 858 q 258 724 293 757 m 81 0 l 81 592 l 268 592 l 268 0 l 81 0 z "},"j":{"ha":347,"x_min":-101,"x_max":293,"o":"m 258 724 q 241 707 258 724 q 175 690 224 690 q 91 724 126 690 q 56 808 56 757 q 91 892 56 858 q 175 925 126 925 q 258 892 224 925 q 293 808 293 858 q 258 724 293 757 m 56 -308 q -35 -287 7 -308 q -101 -237 -78 -267 l -8 -126 q 38 -149 17 -149 q 81 -101 81 -149 l 81 592 l 268 592 l 268 -94 q 214 -253 268 -197 q 56 -308 160 -308 z "},"k":{"ha":686,"x_min":74,"x_max":676,"o":"m 261 171 l 261 0 l 74 0 l 74 1003 l 261 1003 l 261 492 q 251 364 261 429 l 446 592 l 654 592 l 444 350 l 676 0 l 458 0 l 311 224 l 261 171 z "},"l":{"ha":342,"x_min":78,"x_max":264,"o":"m 78 0 l 78 1003 l 264 1003 l 264 0 l 78 0 z "},"m":{"ha":1097,"x_min":74,"x_max":1028,"o":"m 74 0 l 74 592 l 261 592 l 257 500 q 425 604 317 604 q 592 503 539 604 q 793 604 672 604 q 966 535 904 604 q 1028 343 1028 465 l 1028 0 l 842 0 l 842 326 q 821 407 842 381 q 749 433 800 433 q 669 406 694 433 q 644 317 644 378 l 644 0 l 458 0 l 458 326 q 438 407 458 381 q 367 433 418 433 q 261 317 261 433 l 261 0 l 74 0 z "},"n":{"ha":736,"x_min":74,"x_max":667,"o":"m 74 0 l 74 592 l 261 592 l 257 494 q 444 604 313 604 q 605 535 543 604 q 667 342 667 465 l 667 0 l 479 0 l 479 329 q 381 433 479 433 q 292 403 324 433 q 261 317 261 372 l 261 0 l 74 0 z "},"o":{"ha":757,"x_min":53,"x_max":704,"o":"m 611 74 q 565 31 611 74 q 379 -12 518 -12 q 147 74 240 -12 q 53 294 53 161 q 147 517 53 429 q 379 604 240 604 q 611 517 518 604 q 704 294 704 429 q 611 74 704 161 m 281 187 q 300 166 281 187 q 379 146 318 146 q 476 187 440 146 q 513 294 513 228 q 477 403 513 363 q 379 443 442 443 q 281 402 317 443 q 244 294 244 361 q 281 187 244 228 z "},"p":{"ha":765,"x_min":74,"x_max":711,"o":"m 74 -294 l 74 592 l 261 592 l 257 500 q 447 604 315 604 q 634 517 557 604 q 711 297 711 431 q 633 76 711 164 q 443 -12 554 -12 q 261 79 313 -12 l 261 -294 l 74 -294 m 389 151 q 483 190 449 151 q 518 297 518 228 q 483 401 518 363 q 389 439 449 439 q 292 401 328 439 q 256 297 256 363 q 292 190 256 228 q 389 151 328 151 z "},"q":{"ha":767,"x_min":54,"x_max":693,"o":"m 506 -294 l 506 79 q 322 -12 451 -12 q 133 76 211 -12 q 54 297 54 164 q 132 517 54 431 q 319 604 210 604 q 510 500 451 604 l 506 592 l 693 592 l 693 -294 l 506 -294 m 376 151 q 474 190 438 151 q 510 297 510 228 q 474 401 510 363 q 376 439 438 439 q 282 401 317 439 q 247 297 247 363 q 282 190 247 228 q 376 151 317 151 z "},"r":{"ha":544,"x_min":74,"x_max":524,"o":"m 74 0 l 74 592 l 261 592 l 258 485 q 432 604 311 604 q 524 581 479 604 l 464 410 q 392 428 425 428 q 293 391 325 428 q 261 263 261 354 l 261 0 l 74 0 z "},"s":{"ha":585,"x_min":31,"x_max":543,"o":"m 300 -12 q 31 100 125 -12 l 140 197 q 288 135 206 135 q 368 171 368 135 q 366 183 368 178 q 358 192 364 188 q 347 199 353 196 q 327 205 340 201 q 303 211 314 208 q 272 219 292 214 q 235 228 251 224 q 64 417 64 272 q 128 558 64 511 q 293 604 192 604 q 508 522 429 604 l 408 415 q 294 460 356 460 q 231 425 231 460 q 249 396 231 404 q 324 375 268 388 q 349 369 340 371 q 543 185 543 325 q 300 -12 543 -12 z "},"t":{"ha":531,"x_min":43,"x_max":501,"o":"m 336 -15 q 131 222 131 -15 l 131 436 l 43 436 l 43 592 l 131 592 l 131 900 l 317 900 l 317 592 l 468 592 l 468 436 l 317 436 l 317 217 q 329 160 317 175 q 365 144 342 144 q 431 169 393 144 l 501 39 q 336 -15 435 -15 z "},"u":{"ha":733,"x_min":69,"x_max":660,"o":"m 290 -12 q 131 57 192 -12 q 69 250 69 126 l 69 592 l 257 592 l 257 263 q 356 157 257 157 q 442 188 411 157 q 472 275 472 218 l 472 592 l 660 592 l 660 0 l 472 0 l 476 97 q 290 -12 421 -12 z "},"v":{"ha":681,"x_min":13,"x_max":668,"o":"m 333 -12 l 13 592 l 219 592 l 303 415 q 327 349 315 389 q 344 283 339 310 l 351 258 q 397 415 371 356 l 478 592 l 668 592 l 351 -12 l 333 -12 z "},"w":{"ha":957,"x_min":13,"x_max":944,"o":"m 286 -15 l 13 592 l 219 592 l 288 424 l 331 292 q 379 424 353 375 l 476 607 l 490 607 l 593 424 q 617 369 604 403 q 638 314 631 336 l 644 292 q 688 424 667 375 l 757 592 l 944 592 l 668 -15 l 651 -15 l 524 222 q 502 271 513 242 q 486 319 492 300 l 482 340 q 438 222 461 264 l 301 -15 l 286 -15 z "},"x":{"ha":710,"x_min":22,"x_max":688,"o":"m 22 0 l 250 310 l 51 592 l 272 592 l 321 518 q 342 481 331 504 q 358 442 353 458 l 365 426 q 408 518 388 486 l 456 592 l 656 592 l 460 325 l 688 0 l 465 0 l 397 101 q 372 144 386 118 q 350 189 358 171 l 343 207 q 289 101 314 139 l 222 0 l 22 0 z "},"y":{"ha":681,"x_min":13,"x_max":668,"o":"m 93 -294 l 247 56 l 13 592 l 219 592 l 304 364 q 324 301 314 339 q 340 236 335 263 l 346 211 q 386 364 364 310 l 478 592 l 668 592 l 281 -294 l 93 -294 z "},"z":{"ha":614,"x_min":32,"x_max":575,"o":"m 32 0 l 32 15 l 289 440 l 64 440 l 64 592 l 575 592 l 575 576 l 313 151 l 553 151 l 553 0 l 32 0 z "},"{":{"ha":575,"x_min":36,"x_max":533,"o":"m 415 -178 q 196 22 196 -178 l 196 211 q 177 281 196 260 q 117 303 158 303 l 36 303 l 36 461 l 117 461 q 177 483 158 461 q 196 553 196 504 l 196 803 q 415 1003 196 1003 l 533 1003 l 533 844 l 432 844 q 394 833 404 844 q 385 797 385 822 l 385 529 q 256 382 385 403 q 385 235 385 361 l 385 28 q 394 -8 385 3 q 432 -19 404 -19 l 533 -19 l 533 -178 l 415 -178 z "},"|":{"ha":386,"x_min":103,"x_max":283,"o":"m 103 -178 l 103 1003 l 283 1003 l 283 -178 l 103 -178 z "},"}":{"ha":575,"x_min":42,"x_max":539,"o":"m 42 -178 l 42 -19 l 143 -19 q 181 -8 171 -19 q 190 28 190 3 l 190 235 q 319 382 190 361 q 190 529 190 403 l 190 797 q 181 833 190 822 q 143 844 171 844 l 42 844 l 42 1003 l 160 1003 q 379 803 379 1003 l 379 553 q 398 483 379 504 q 458 461 417 461 l 539 461 l 539 303 l 458 303 q 398 281 417 303 q 379 211 379 260 l 379 22 q 160 -178 379 -178 l 42 -178 z "},"~":{"ha":567,"x_min":46,"x_max":521,"o":"m 172 285 l 46 297 q 94 442 51 392 q 200 492 136 492 q 288 464 243 492 q 308 451 296 458 q 326 439 319 443 q 340 432 332 435 q 354 429 347 429 q 394 492 389 429 l 521 479 q 474 335 515 385 q 367 285 432 285 q 279 313 324 285 q 259 326 271 318 q 242 338 247 333 q 228 344 236 342 q 213 347 219 347 q 172 285 178 347 z "}," ":{"ha":253,"x_min":0,"x_max":0,"o":""},"¡":{"ha":393,"x_min":79,"x_max":314,"o":"m 113 919 q 130 936 113 919 q 196 953 147 953 q 279 919 244 953 q 314 835 314 886 q 279 751 314 785 q 196 718 244 718 q 114 751 149 718 q 79 835 79 785 q 113 919 79 886 m 271 624 l 301 0 l 92 0 l 122 624 l 271 624 z "},"¢":{"ha":671,"x_min":53,"x_max":631,"o":"m 329 -10 q 131 90 208 6 q 53 297 53 175 q 130 503 53 419 q 329 601 207 586 l 329 751 l 422 751 l 422 601 q 631 486 546 590 l 500 381 q 422 438 474 424 l 422 150 q 504 203 463 161 l 628 94 q 422 -10 546 1 l 422 -161 l 329 -161 l 329 -10 m 329 438 q 240 297 240 408 q 264 205 240 243 q 329 151 288 167 l 329 438 z "},"£":{"ha":804,"x_min":26,"x_max":781,"o":"m 242 340 l 107 340 l 107 482 l 178 482 q 151 601 151 549 q 231 785 151 713 q 453 858 311 858 q 733 690 653 858 l 579 599 q 526 669 556 647 q 453 692 497 692 q 371 666 401 692 q 340 590 340 640 q 364 482 340 546 l 579 482 l 579 340 l 417 340 q 443 194 443 261 l 443 182 q 558 150 510 150 q 671 204 621 150 l 781 92 q 567 -12 704 -12 q 375 56 469 -12 q 208 -12 303 -12 q 76 30 126 -12 q 26 140 26 72 q 72 244 26 206 q 185 282 118 282 q 271 268 226 282 q 242 340 263 296 m 275 139 q 203 171 233 171 q 171 160 183 171 q 158 135 158 150 q 171 109 158 119 q 204 99 183 99 q 275 139 254 99 z "},"¤":{"ha":831,"x_min":36,"x_max":790,"o":"m 117 393 l 36 393 l 36 513 l 144 513 q 281 676 188 615 q 492 738 374 738 q 654 708 588 738 q 775 613 721 679 l 646 504 q 492 578 588 578 q 346 513 399 578 l 519 513 l 519 393 l 301 393 q 300 364 300 383 q 301 335 300 344 l 519 335 l 519 215 l 346 215 q 492 149 400 149 q 653 233 597 149 l 790 131 q 667 21 736 54 q 492 -12 597 -12 q 281 50 375 -12 q 144 215 188 113 l 36 215 l 36 335 l 117 335 q 115 364 115 344 q 117 393 115 383 z "},"¥":{"ha":794,"x_min":33,"x_max":761,"o":"m 301 0 l 301 133 l 67 133 l 67 253 l 300 253 l 256 331 l 67 331 l 67 450 l 188 450 l 33 725 l 242 725 l 350 511 q 377 448 364 483 q 397 390 390 413 l 404 368 q 460 511 429 450 l 569 725 l 761 725 l 606 450 l 726 450 l 726 331 l 538 331 l 493 253 l 726 253 l 726 133 l 492 133 l 492 0 l 301 0 z "},"¦":{"ha":338,"x_min":56,"x_max":290,"o":"m 256 274 q 239 257 256 274 q 174 240 222 240 q 90 274 125 240 q 56 358 56 307 q 90 442 56 408 q 174 475 125 475 q 256 442 221 475 q 290 358 290 408 q 256 274 290 307 z "},"§":{"ha":729,"x_min":39,"x_max":690,"o":"m 164 526 q 124 650 124 579 q 192 800 124 742 q 363 858 260 858 q 512 824 454 858 q 608 717 569 789 l 460 644 q 371 708 424 708 q 317 694 335 708 q 300 657 300 679 q 351 594 300 613 l 494 542 q 690 332 690 469 q 572 168 690 221 q 607 53 607 121 q 540 -91 607 -39 q 351 -143 472 -143 q 178 -99 253 -143 q 78 6 103 -56 l 224 82 q 342 8 261 8 q 419 50 419 8 q 367 103 419 83 l 236 153 q 86 243 133 192 q 39 371 39 294 q 164 526 39 478 m 478 240 q 518 299 518 260 q 446 379 518 351 l 303 433 q 247 458 269 444 q 211 400 211 442 q 279 318 211 344 l 414 268 q 478 240 447 256 z "},"¨":{"ha":694,"x_min":90,"x_max":604,"o":"m 572 734 q 556 718 572 734 q 499 703 540 703 q 425 734 457 703 q 393 808 393 765 q 425 883 393 851 q 499 914 457 914 q 572 883 540 914 q 604 808 604 851 q 572 734 604 765 m 269 734 q 253 718 269 734 q 196 703 238 703 q 122 734 154 703 q 90 808 90 765 q 122 883 90 851 q 196 914 154 914 q 269 883 238 914 q 301 808 301 851 q 269 734 301 765 z "},"©":{"ha":825,"x_min":40,"x_max":785,"o":"m 415 -7 q 151 100 263 -7 q 40 365 40 207 q 151 631 40 524 q 415 738 263 738 q 676 631 567 738 q 785 365 785 524 q 676 100 785 207 q 415 -7 567 -7 m 415 75 q 617 156 535 75 q 699 365 699 236 q 617 575 699 494 q 415 656 535 656 q 210 575 293 656 q 126 365 126 494 q 210 156 126 236 q 415 75 293 75 m 422 161 q 268 219 328 161 q 208 365 208 276 q 267 514 208 456 q 417 572 326 572 q 589 497 519 572 l 490 406 q 429 436 467 436 q 367 365 367 436 q 384 315 367 335 q 432 294 401 294 q 492 324 471 294 l 592 236 q 422 161 528 161 z "},"ª":{"ha":594,"x_min":43,"x_max":531,"o":"m 361 522 q 282 599 357 599 q 169 553 218 599 l 68 649 q 303 738 157 738 q 466 681 401 738 q 531 513 531 624 l 531 225 l 361 225 l 365 288 q 222 213 314 213 q 94 253 144 213 q 43 369 43 293 q 99 483 43 444 q 246 522 154 522 l 361 522 m 361 422 l 261 422 q 211 382 211 422 q 226 354 211 365 q 268 343 240 343 q 338 362 315 343 q 361 408 361 381 l 361 422 z "},"«":{"ha":700,"x_min":44,"x_max":656,"o":"m 475 44 l 343 278 l 343 289 l 475 518 l 656 518 l 519 283 l 656 44 l 475 44 m 176 44 l 44 278 l 44 289 l 176 518 l 357 518 l 221 283 l 357 44 l 176 44 z "},"¬":{"ha":338,"x_min":56,"x_max":290,"o":"m 256 274 q 239 257 256 274 q 174 240 222 240 q 90 274 125 240 q 56 358 56 307 q 90 442 56 408 q 174 475 125 475 q 256 442 221 475 q 290 358 290 408 q 256 274 290 307 z "},"®":{"ha":699,"x_min":40,"x_max":658,"o":"m 347 351 q 129 438 218 351 q 40 654 40 524 q 129 872 40 786 q 347 957 218 957 q 568 872 478 957 q 658 654 658 786 q 568 438 658 524 q 347 351 478 351 m 347 418 q 518 481 451 418 q 585 651 585 544 q 518 826 585 763 q 347 890 451 890 q 179 826 244 890 q 114 651 114 763 q 179 481 114 544 q 347 418 244 418 m 438 597 l 489 504 l 394 504 l 357 579 l 322 579 l 322 504 l 231 504 l 231 806 l 360 806 q 453 772 418 806 q 488 694 488 739 q 438 597 488 629 m 322 651 l 363 651 q 397 690 397 651 q 386 717 397 708 q 363 726 375 726 l 322 726 l 322 651 z "},"¯":{"ha":694,"x_min":178,"x_max":517,"o":"m 178 731 l 178 868 l 517 868 l 517 731 l 178 731 z "},"ˉ":{"ha":694,"x_min":178,"x_max":517,"o":"m 178 731 l 178 868 l 517 868 l 517 731 l 178 731 z "},"°":{"ha":461,"x_min":36,"x_max":425,"o":"m 231 372 q 94 426 151 372 q 36 556 36 479 q 93 685 36 633 q 231 738 150 738 q 368 685 311 738 q 425 556 425 633 q 368 426 425 479 q 231 372 311 372 m 181 503 q 190 493 181 503 q 231 483 200 483 q 281 503 261 483 q 300 556 300 524 q 281 607 300 588 q 231 626 261 626 q 181 607 200 626 q 161 556 161 588 q 181 503 161 524 z "},"²":{"ha":338,"x_min":56,"x_max":290,"o":"m 256 274 q 239 257 256 274 q 174 240 222 240 q 90 274 125 240 q 56 358 56 307 q 90 442 56 408 q 174 475 125 475 q 256 442 221 475 q 290 358 290 408 q 256 274 290 307 z "},"³":{"ha":338,"x_min":56,"x_max":290,"o":"m 256 274 q 239 257 256 274 q 174 240 222 240 q 90 274 125 240 q 56 358 56 307 q 90 442 56 408 q 174 475 125 475 q 256 442 221 475 q 290 358 290 408 q 256 274 290 307 z "},"´":{"ha":694,"x_min":278,"x_max":564,"o":"m 278 694 l 350 956 l 564 956 l 419 694 l 278 694 z "},"µ":{"ha":338,"x_min":56,"x_max":290,"o":"m 256 274 q 239 257 256 274 q 174 240 222 240 q 90 274 125 240 q 56 358 56 307 q 90 442 56 408 q 174 475 125 475 q 256 442 221 475 q 290 358 290 408 q 256 274 290 307 z "},"μ":{"ha":338,"x_min":56,"x_max":290,"o":"m 256 274 q 239 257 256 274 q 174 240 222 240 q 90 274 125 240 q 56 358 56 307 q 90 442 56 408 q 174 475 125 475 q 256 442 221 475 q 290 358 290 408 q 256 274 290 307 z "},"¶":{"ha":983,"x_min":44,"x_max":885,"o":"m 424 0 l 424 338 l 378 338 q 132 423 219 338 q 44 636 44 508 q 133 854 44 764 q 378 944 221 944 l 885 944 l 885 0 l 700 0 l 700 782 l 608 782 l 608 0 l 424 0 m 383 500 l 424 500 l 424 782 l 383 782 q 288 747 325 782 q 250 642 250 711 q 288 535 250 571 q 383 500 325 500 z "},"·":{"ha":346,"x_min":56,"x_max":290,"o":"m 256 274 q 239 257 256 274 q 174 240 222 240 q 90 274 125 240 q 56 358 56 307 q 90 442 56 408 q 174 475 125 475 q 256 442 221 475 q 290 358 290 408 q 256 274 290 307 z "},"∙":{"ha":346,"x_min":56,"x_max":290,"o":"m 256 274 q 239 257 256 274 q 174 240 222 240 q 90 274 125 240 q 56 358 56 307 q 90 442 56 408 q 174 475 125 475 q 256 442 221 475 q 290 358 290 408 q 256 274 290 307 z "},"¸":{"ha":694,"x_min":196,"x_max":510,"o":"m 360 -333 q 196 -250 244 -333 l 285 -196 q 344 -235 306 -235 q 380 -222 365 -235 q 394 -187 394 -210 q 338 -140 394 -140 l 290 -140 l 290 0 l 386 0 l 386 -54 q 474 -101 439 -64 q 510 -199 510 -137 q 465 -296 510 -258 q 360 -333 419 -333 z "},"¹":{"ha":338,"x_min":56,"x_max":290,"o":"m 256 274 q 239 257 256 274 q 174 240 222 240 q 90 274 125 240 q 56 358 56 307 q 90 442 56 408 q 174 475 125 475 q 256 442 221 475 q 290 358 290 408 q 256 274 290 307 z "},"º":{"ha":665,"x_min":54,"x_max":611,"o":"m 333 211 q 135 286 215 211 q 54 475 54 361 q 135 663 54 588 q 333 738 217 738 q 531 662 450 738 q 611 475 611 586 q 531 286 611 361 q 333 211 450 211 m 333 354 q 409 387 381 354 q 438 475 438 419 q 409 560 438 528 q 333 593 381 593 q 258 561 285 593 q 231 475 231 529 q 258 387 231 419 q 333 354 285 354 z "},"»":{"ha":700,"x_min":44,"x_max":656,"o":"m 343 44 l 479 279 l 343 518 l 524 518 l 656 285 l 656 274 l 524 44 l 343 44 m 44 44 l 181 279 l 44 518 l 225 518 l 357 285 l 357 274 l 225 44 l 44 44 z "},"¼":{"ha":338,"x_min":56,"x_max":290,"o":"m 256 274 q 239 257 256 274 q 174 240 222 240 q 90 274 125 240 q 56 358 56 307 q 90 442 56 408 q 174 475 125 475 q 256 442 221 475 q 290 358 290 408 q 256 274 290 307 z "},"½":{"ha":338,"x_min":56,"x_max":290,"o":"m 256 274 q 239 257 256 274 q 174 240 222 240 q 90 274 125 240 q 56 358 56 307 q 90 442 56 408 q 174 475 125 475 q 256 442 221 475 q 290 358 290 408 q 256 274 290 307 z "},"¾":{"ha":338,"x_min":56,"x_max":290,"o":"m 256 274 q 239 257 256 274 q 174 240 222 240 q 90 274 125 240 q 56 358 56 307 q 90 442 56 408 q 174 475 125 475 q 256 442 221 475 q 290 358 290 408 q 256 274 290 307 z "},"¿":{"ha":713,"x_min":60,"x_max":665,"o":"m 302 919 q 319 936 302 919 q 385 953 336 953 q 468 919 433 953 q 503 835 503 886 q 468 751 503 785 q 385 718 433 718 q 303 751 338 718 q 268 835 268 785 q 302 919 268 886 m 471 624 l 471 403 l 407 403 q 289 365 326 403 q 251 271 251 328 q 284 190 251 225 q 368 154 317 154 q 455 176 422 154 q 515 244 488 199 l 665 157 q 368 -12 588 -12 q 143 71 226 -12 q 60 271 60 154 q 121 454 60 383 q 296 542 182 525 l 296 624 l 471 624 z "},"À":{"ha":922,"x_min":29,"x_max":893,"o":"m 389 1039 l 244 1300 l 458 1300 l 531 1039 l 389 1039 m 29 0 l 444 953 l 461 953 l 893 0 l 689 0 l 644 107 l 261 107 l 217 0 l 29 0 m 326 269 l 575 269 l 507 433 q 481 505 494 463 q 458 575 467 547 l 450 603 q 394 433 422 500 l 326 269 z "},"Á":{"ha":922,"x_min":29,"x_max":893,"o":"m 385 1039 l 457 1300 l 671 1300 l 526 1039 l 385 1039 m 29 0 l 444 953 l 461 953 l 893 0 l 689 0 l 644 107 l 261 107 l 217 0 l 29 0 m 326 269 l 575 269 l 507 433 q 481 505 494 463 q 458 575 467 547 l 450 603 q 394 433 422 500 l 326 269 z "},"Â":{"ha":922,"x_min":29,"x_max":893,"o":"m 224 1039 l 444 1339 l 460 1339 l 681 1039 l 531 1039 l 453 1129 l 374 1039 l 224 1039 m 29 0 l 444 953 l 461 953 l 893 0 l 689 0 l 644 107 l 261 107 l 217 0 l 29 0 m 326 269 l 575 269 l 507 433 q 481 505 494 463 q 458 575 467 547 l 450 603 q 394 433 422 500 l 326 269 z "},"Ã":{"ha":922,"x_min":29,"x_max":893,"o":"m 339 1039 l 213 1051 q 260 1196 218 1146 q 367 1246 303 1246 q 454 1218 410 1246 q 474 1205 463 1213 q 492 1193 486 1197 q 506 1186 499 1189 q 521 1183 514 1183 q 561 1246 556 1183 l 688 1233 q 640 1089 682 1139 q 533 1039 599 1039 q 446 1067 490 1039 q 426 1080 438 1072 q 408 1092 414 1088 q 394 1099 403 1096 q 379 1101 386 1101 q 339 1039 344 1101 m 29 0 l 444 953 l 461 953 l 893 0 l 689 0 l 644 107 l 261 107 l 217 0 l 29 0 m 326 269 l 575 269 l 507 433 q 481 505 494 463 q 458 575 467 547 l 450 603 q 394 433 422 500 l 326 269 z "},"Ä":{"ha":922,"x_min":29,"x_max":893,"o":"m 686 1078 q 670 1063 686 1078 q 613 1047 654 1047 q 539 1078 571 1047 q 507 1153 507 1110 q 539 1227 507 1196 q 613 1258 571 1258 q 686 1227 654 1258 q 718 1153 718 1196 q 686 1078 718 1110 m 383 1078 q 367 1063 383 1078 q 310 1047 351 1047 q 236 1078 268 1047 q 204 1153 204 1110 q 236 1227 204 1196 q 310 1258 268 1258 q 383 1227 351 1258 q 415 1153 415 1196 q 383 1078 415 1110 m 29 0 l 444 953 l 461 953 l 893 0 l 689 0 l 644 107 l 261 107 l 217 0 l 29 0 m 326 269 l 575 269 l 507 433 q 481 505 494 463 q 458 575 467 547 l 450 603 q 394 433 422 500 l 326 269 z "},"Å":{"ha":922,"x_min":29,"x_max":893,"o":"m 588 1051 q 562 1027 588 1051 q 461 1003 536 1003 q 334 1051 386 1003 q 282 1168 282 1100 q 334 1285 282 1236 q 461 1333 386 1333 q 588 1285 536 1333 q 640 1168 640 1236 q 588 1051 640 1100 m 29 0 l 444 953 l 461 953 l 893 0 l 689 0 l 644 107 l 261 107 l 217 0 l 29 0 m 418 1122 q 426 1114 418 1122 q 461 1106 435 1106 q 504 1122 488 1106 q 521 1168 521 1139 q 504 1214 521 1197 q 461 1231 488 1231 q 418 1214 435 1231 q 401 1168 401 1197 q 418 1122 401 1139 m 326 269 l 575 269 l 507 433 q 481 505 494 463 q 458 575 467 547 l 450 603 q 394 433 422 500 l 326 269 z "},"Æ":{"ha":1375,"x_min":21,"x_max":1293,"o":"m 21 0 l 669 944 l 1274 944 l 1274 774 l 843 774 l 843 474 l 1222 474 l 1222 307 l 843 307 l 843 171 l 1293 171 l 1293 0 l 649 0 l 649 107 l 299 107 l 226 0 l 21 0 m 413 275 l 649 275 l 649 544 q 652 603 649 569 q 658 657 656 636 l 663 678 q 603 558 635 606 l 413 275 z "},"Ç":{"ha":1008,"x_min":67,"x_max":947,"o":"m 478 -7 q 183 151 300 18 q 67 472 67 285 q 207 818 67 681 q 553 956 347 956 q 931 763 807 956 l 782 657 q 553 781 706 781 q 347 693 426 781 q 267 472 267 606 q 347 250 267 339 q 553 161 426 161 q 695 197 639 161 q 796 300 751 233 l 947 196 q 574 -12 818 -3 l 574 -54 q 662 -101 626 -64 q 697 -199 697 -137 q 652 -296 697 -258 q 547 -333 607 -333 q 383 -250 432 -333 l 472 -196 q 532 -235 493 -235 q 567 -222 553 -235 q 582 -187 582 -210 q 525 -140 582 -140 l 478 -140 l 478 -7 z "},"È":{"ha":825,"x_min":99,"x_max":743,"o":"m 358 1039 l 214 1300 l 428 1300 l 500 1039 l 358 1039 m 99 0 l 99 944 l 724 944 l 724 774 l 293 774 l 293 474 l 672 474 l 672 307 l 293 307 l 293 171 l 743 171 l 743 0 l 99 0 z "},"É":{"ha":825,"x_min":99,"x_max":743,"o":"m 342 1039 l 414 1300 l 628 1300 l 483 1039 l 342 1039 m 99 0 l 99 944 l 724 944 l 724 774 l 293 774 l 293 474 l 672 474 l 672 307 l 293 307 l 293 171 l 743 171 l 743 0 l 99 0 z "},"Ê":{"ha":825,"x_min":99,"x_max":743,"o":"m 188 1039 l 408 1339 l 424 1339 l 644 1039 l 494 1039 l 417 1129 l 338 1039 l 188 1039 m 99 0 l 99 944 l 724 944 l 724 774 l 293 774 l 293 474 l 672 474 l 672 307 l 293 307 l 293 171 l 743 171 l 743 0 l 99 0 z "},"Ë":{"ha":825,"x_min":99,"x_max":743,"o":"m 640 1078 q 624 1063 640 1078 q 567 1047 608 1047 q 493 1078 525 1047 q 461 1153 461 1110 q 493 1227 461 1196 q 567 1258 525 1258 q 640 1227 608 1258 q 672 1153 672 1196 q 640 1078 672 1110 m 338 1078 q 322 1063 338 1078 q 264 1047 306 1047 q 190 1078 222 1047 q 158 1153 158 1110 q 190 1227 158 1196 q 264 1258 222 1258 q 338 1227 306 1258 q 369 1153 369 1196 q 338 1078 369 1110 m 99 0 l 99 944 l 724 944 l 724 774 l 293 774 l 293 474 l 672 474 l 672 307 l 293 307 l 293 171 l 743 171 l 743 0 l 99 0 z "},"Ì":{"ha":399,"x_min":-18,"x_max":297,"o":"m 126 1039 l -18 1300 l 196 1300 l 268 1039 l 126 1039 m 103 0 l 103 944 l 297 944 l 297 0 l 103 0 z "},"Í":{"ha":399,"x_min":103,"x_max":415,"o":"m 129 1039 l 201 1300 l 415 1300 l 271 1039 l 129 1039 m 103 0 l 103 944 l 297 944 l 297 0 l 103 0 z "},"Î":{"ha":399,"x_min":-31,"x_max":426,"o":"m -31 1039 l 190 1339 l 206 1339 l 426 1039 l 276 1039 l 199 1129 l 119 1039 l -31 1039 m 103 0 l 103 944 l 297 944 l 297 0 l 103 0 z "},"Ï":{"ha":399,"x_min":-58,"x_max":456,"o":"m 424 1078 q 408 1063 424 1078 q 350 1047 392 1047 q 276 1078 308 1047 q 244 1153 244 1110 q 276 1227 244 1196 q 350 1258 308 1258 q 424 1227 392 1258 q 456 1153 456 1196 q 424 1078 456 1110 m 121 1078 q 105 1063 121 1078 q 47 1047 89 1047 q -26 1078 6 1047 q -58 1153 -58 1110 q -26 1227 -58 1196 q 47 1258 6 1258 q 121 1227 89 1258 q 153 1153 153 1196 q 121 1078 153 1110 m 103 0 l 103 944 l 297 944 l 297 0 l 103 0 z "},"Ð":{"ha":951,"x_min":17,"x_max":886,"o":"m 99 0 l 99 331 l 17 331 l 17 499 l 99 499 l 99 944 l 389 944 q 747 813 607 944 q 886 472 886 681 q 747 132 886 264 q 389 0 608 0 l 99 0 m 293 171 l 379 171 q 608 253 531 171 q 685 472 685 335 q 608 692 685 610 q 379 774 531 774 l 293 774 l 293 499 l 503 499 l 503 331 l 293 331 l 293 171 z "},"Ñ":{"ha":974,"x_min":99,"x_max":875,"o":"m 375 1039 l 249 1051 q 297 1196 254 1146 q 403 1246 339 1246 q 490 1218 446 1246 q 510 1205 499 1213 q 528 1193 522 1197 q 542 1186 535 1189 q 557 1183 550 1183 q 597 1246 592 1183 l 724 1233 q 676 1089 718 1139 q 569 1039 635 1039 q 482 1067 526 1039 q 462 1080 474 1072 q 444 1092 450 1088 q 431 1099 439 1096 q 415 1101 422 1101 q 375 1039 381 1101 m 856 -8 l 379 439 q 330 491 358 458 q 283 546 301 524 l 267 568 q 281 396 281 464 l 281 0 l 99 0 l 99 953 l 118 953 l 594 506 q 643 454 615 486 q 689 400 671 422 l 706 376 q 693 549 693 483 l 693 944 l 875 944 l 875 -8 l 856 -8 z "},"Ò":{"ha":1111,"x_min":67,"x_max":1044,"o":"m 483 1039 l 339 1300 l 553 1300 l 625 1039 l 483 1039 m 903 126 q 832 57 903 126 q 556 -12 761 -12 q 208 126 350 -12 q 67 472 67 264 q 208 819 67 681 q 556 957 350 957 q 903 819 761 957 q 1044 472 1044 681 q 903 126 1044 264 m 347 250 q 388 206 347 250 q 556 161 428 161 q 764 250 683 161 q 844 472 844 339 q 764 694 844 606 q 556 783 683 783 q 347 694 428 783 q 267 472 267 606 q 347 250 267 339 z "},"Ó":{"ha":1111,"x_min":67,"x_max":1044,"o":"m 486 1039 l 558 1300 l 772 1300 l 628 1039 l 486 1039 m 903 126 q 832 57 903 126 q 556 -12 761 -12 q 208 126 350 -12 q 67 472 67 264 q 208 819 67 681 q 556 957 350 957 q 903 819 761 957 q 1044 472 1044 681 q 903 126 1044 264 m 347 250 q 388 206 347 250 q 556 161 428 161 q 764 250 683 161 q 844 472 844 339 q 764 694 844 606 q 556 783 683 783 q 347 694 428 783 q 267 472 267 606 q 347 250 267 339 z "},"Ô":{"ha":1111,"x_min":67,"x_max":1044,"o":"m 326 1039 l 547 1339 l 563 1339 l 783 1039 l 633 1039 l 556 1129 l 476 1039 l 326 1039 m 903 126 q 832 57 903 126 q 556 -12 761 -12 q 208 126 350 -12 q 67 472 67 264 q 208 819 67 681 q 556 957 350 957 q 903 819 761 957 q 1044 472 1044 681 q 903 126 1044 264 m 347 250 q 388 206 347 250 q 556 161 428 161 q 764 250 683 161 q 844 472 844 339 q 764 694 844 606 q 556 783 683 783 q 347 694 428 783 q 267 472 267 606 q 347 250 267 339 z "},"Õ":{"ha":1111,"x_min":67,"x_max":1044,"o":"m 444 1039 l 318 1051 q 366 1196 324 1146 q 472 1246 408 1246 q 560 1218 515 1246 q 580 1205 568 1213 q 598 1193 592 1197 q 612 1186 604 1189 q 626 1183 619 1183 q 667 1246 661 1183 l 793 1233 q 746 1089 788 1139 q 639 1039 704 1039 q 551 1067 596 1039 q 531 1080 543 1072 q 514 1092 519 1088 q 500 1099 508 1096 q 485 1101 492 1101 q 444 1039 450 1101 m 903 126 q 832 57 903 126 q 556 -12 761 -12 q 208 126 350 -12 q 67 472 67 264 q 208 819 67 681 q 556 957 350 957 q 903 819 761 957 q 1044 472 1044 681 q 903 126 1044 264 m 347 250 q 388 206 347 250 q 556 161 428 161 q 764 250 683 161 q 844 472 844 339 q 764 694 844 606 q 556 783 683 783 q 347 694 428 783 q 267 472 267 606 q 347 250 267 339 z "},"Ö":{"ha":1111,"x_min":67,"x_max":1044,"o":"m 781 1078 q 765 1063 781 1078 q 707 1047 749 1047 q 633 1078 665 1047 q 601 1153 601 1110 q 633 1227 601 1196 q 707 1258 665 1258 q 781 1227 749 1258 q 813 1153 813 1196 q 781 1078 813 1110 m 478 1078 q 462 1063 478 1078 q 404 1047 446 1047 q 331 1078 363 1047 q 299 1153 299 1110 q 331 1227 299 1196 q 404 1258 363 1258 q 478 1227 446 1258 q 510 1153 510 1196 q 478 1078 510 1110 m 903 126 q 832 57 903 126 q 556 -12 761 -12 q 208 126 350 -12 q 67 472 67 264 q 208 819 67 681 q 556 957 350 957 q 903 819 761 957 q 1044 472 1044 681 q 903 126 1044 264 m 347 250 q 388 206 347 250 q 556 161 428 161 q 764 250 683 161 q 844 472 844 339 q 764 694 844 606 q 556 783 683 783 q 347 694 428 783 q 267 472 267 606 q 347 250 267 339 z "},"×":{"ha":338,"x_min":56,"x_max":290,"o":"m 256 274 q 239 257 256 274 q 174 240 222 240 q 90 274 125 240 q 56 358 56 307 q 90 442 56 408 q 174 475 125 475 q 256 442 221 475 q 290 358 290 408 q 256 274 290 307 z "},"Ø":{"ha":1111,"x_min":50,"x_max":1061,"o":"m 158 -14 l 50 93 l 153 190 q 67 472 67 317 q 208 819 67 681 q 556 957 350 957 q 853 861 724 957 l 953 957 l 1061 850 l 958 753 q 1044 472 1044 629 q 903 126 1044 264 q 556 -12 761 -12 q 260 82 389 -12 l 158 -14 m 294 326 l 721 735 q 556 785 651 785 q 347 695 428 785 q 265 472 265 606 q 294 326 265 392 m 556 160 q 765 249 683 160 q 846 472 846 339 q 818 617 846 553 l 390 208 q 556 160 460 160 z "},"Ù":{"ha":953,"x_min":94,"x_max":858,"o":"m 404 1039 l 260 1300 l 474 1300 l 546 1039 l 404 1039 m 478 -12 q 201 78 307 -12 q 94 342 94 169 l 94 944 l 289 944 l 289 353 q 334 207 289 251 q 478 163 379 163 q 619 207 575 163 q 664 353 664 251 l 664 944 l 858 944 l 858 342 q 753 78 858 169 q 478 -12 647 -12 z "},"Ú":{"ha":953,"x_min":94,"x_max":858,"o":"m 407 1039 l 479 1300 l 693 1300 l 549 1039 l 407 1039 m 478 -12 q 201 78 307 -12 q 94 342 94 169 l 94 944 l 289 944 l 289 353 q 334 207 289 251 q 478 163 379 163 q 619 207 575 163 q 664 353 664 251 l 664 944 l 858 944 l 858 342 q 753 78 858 169 q 478 -12 647 -12 z "},"Û":{"ha":953,"x_min":94,"x_max":858,"o":"m 247 1039 l 468 1339 l 483 1339 l 704 1039 l 554 1039 l 476 1129 l 397 1039 l 247 1039 m 478 -12 q 201 78 307 -12 q 94 342 94 169 l 94 944 l 289 944 l 289 353 q 334 207 289 251 q 478 163 379 163 q 619 207 575 163 q 664 353 664 251 l 664 944 l 858 944 l 858 342 q 753 78 858 169 q 478 -12 647 -12 z "},"Ü":{"ha":953,"x_min":94,"x_max":858,"o":"m 701 1078 q 685 1063 701 1078 q 628 1047 669 1047 q 554 1078 586 1047 q 522 1153 522 1110 q 554 1227 522 1196 q 628 1258 586 1258 q 701 1227 669 1258 q 733 1153 733 1196 q 701 1078 733 1110 m 399 1078 q 383 1063 399 1078 q 325 1047 367 1047 q 251 1078 283 1047 q 219 1153 219 1110 q 251 1227 219 1196 q 325 1258 283 1258 q 399 1227 367 1258 q 431 1153 431 1196 q 399 1078 431 1110 m 478 -12 q 201 78 307 -12 q 94 342 94 169 l 94 944 l 289 944 l 289 353 q 334 207 289 251 q 478 163 379 163 q 619 207 575 163 q 664 353 664 251 l 664 944 l 858 944 l 858 342 q 753 78 858 169 q 478 -12 647 -12 z "},"Ý":{"ha":947,"x_min":29,"x_max":919,"o":"m 407 1039 l 479 1300 l 693 1300 l 549 1039 l 407 1039 m 388 0 l 388 300 l 29 944 l 244 944 l 411 640 q 447 566 428 611 q 476 492 465 521 l 488 461 q 561 640 525 572 l 721 944 l 919 944 l 583 314 l 583 0 l 388 0 z "},"Þ":{"ha":835,"x_min":99,"x_max":782,"o":"m 99 0 l 99 944 l 293 944 l 293 843 l 360 843 q 669 746 557 843 q 782 478 782 649 q 669 210 782 307 q 360 114 557 114 l 293 114 l 293 0 l 99 0 m 293 285 l 354 285 q 527 333 472 285 q 582 478 582 381 q 354 672 582 672 l 293 672 l 293 285 z "},"ß":{"ha":808,"x_min":74,"x_max":756,"o":"m 454 -8 q 333 7 379 -8 l 354 161 q 421 150 388 150 q 564 297 564 150 q 363 460 564 467 l 363 607 q 482 744 482 622 q 375 867 482 867 q 292 830 322 867 q 261 724 261 793 l 261 0 l 74 0 l 74 718 q 157 942 74 863 q 375 1021 240 1021 q 586 948 511 1021 q 661 753 661 875 q 553 560 661 621 q 702 465 649 532 q 756 292 756 397 q 676 74 756 156 q 454 -8 597 -8 z "},"à":{"ha":678,"x_min":43,"x_max":608,"o":"m 285 694 l 140 956 l 354 956 l 426 694 l 285 694 m 422 351 q 324 450 418 450 q 189 396 250 450 l 85 507 q 190 579 133 554 q 342 604 246 604 q 535 537 461 604 q 608 336 608 469 l 608 0 l 422 0 l 426 82 q 251 -12 365 -12 q 102 33 161 -12 q 43 174 43 78 q 285 351 43 351 l 422 351 m 422 240 l 294 240 q 226 186 226 240 q 307 133 226 133 q 392 156 363 133 q 422 217 422 178 l 422 240 z "},"á":{"ha":678,"x_min":43,"x_max":608,"o":"m 254 694 l 326 956 l 540 956 l 396 694 l 254 694 m 422 351 q 324 450 418 450 q 189 396 250 450 l 85 507 q 190 579 133 554 q 342 604 246 604 q 535 537 461 604 q 608 336 608 469 l 608 0 l 422 0 l 426 82 q 251 -12 365 -12 q 102 33 161 -12 q 43 174 43 78 q 285 351 43 351 l 422 351 m 422 240 l 294 240 q 226 186 226 240 q 307 133 226 133 q 392 156 363 133 q 422 217 422 178 l 422 240 z "},"â":{"ha":678,"x_min":43,"x_max":608,"o":"m 106 694 l 326 994 l 342 994 l 563 694 l 413 694 l 335 785 l 256 694 l 106 694 m 422 351 q 324 450 418 450 q 189 396 250 450 l 85 507 q 190 579 133 554 q 342 604 246 604 q 535 537 461 604 q 608 336 608 469 l 608 0 l 422 0 l 426 82 q 251 -12 365 -12 q 102 33 161 -12 q 43 174 43 78 q 285 351 43 351 l 422 351 m 422 240 l 294 240 q 226 186 226 240 q 307 133 226 133 q 392 156 363 133 q 422 217 422 178 l 422 240 z "},"ã":{"ha":678,"x_min":43,"x_max":608,"o":"m 217 694 l 90 707 q 138 851 96 801 q 244 901 181 901 q 332 874 288 901 q 352 860 340 868 q 370 849 364 853 q 384 842 376 844 q 399 839 392 839 q 439 901 433 839 l 565 889 q 518 744 560 794 q 411 694 476 694 q 324 722 368 694 q 303 735 315 728 q 286 747 292 743 q 272 754 281 751 q 257 757 264 757 q 217 694 222 757 m 422 351 q 324 450 418 450 q 189 396 250 450 l 85 507 q 190 579 133 554 q 342 604 246 604 q 535 537 461 604 q 608 336 608 469 l 608 0 l 422 0 l 426 82 q 251 -12 365 -12 q 102 33 161 -12 q 43 174 43 78 q 285 351 43 351 l 422 351 m 422 240 l 294 240 q 226 186 226 240 q 307 133 226 133 q 392 156 363 133 q 422 217 422 178 l 422 240 z "},"ä":{"ha":678,"x_min":43,"x_max":608,"o":"m 563 734 q 547 718 563 734 q 489 703 531 703 q 415 734 447 703 q 383 808 383 765 q 415 883 383 851 q 489 914 447 914 q 563 883 531 914 q 594 808 594 851 q 563 734 594 765 m 260 734 q 244 718 260 734 q 186 703 228 703 q 113 734 144 703 q 81 808 81 765 q 113 883 81 851 q 186 914 144 914 q 260 883 228 914 q 292 808 292 851 q 260 734 292 765 m 422 351 q 324 450 418 450 q 189 396 250 450 l 85 507 q 190 579 133 554 q 342 604 246 604 q 535 537 461 604 q 608 336 608 469 l 608 0 l 422 0 l 426 82 q 251 -12 365 -12 q 102 33 161 -12 q 43 174 43 78 q 285 351 43 351 l 422 351 m 422 240 l 294 240 q 226 186 226 240 q 307 133 226 133 q 392 156 363 133 q 422 217 422 178 l 422 240 z "},"å":{"ha":678,"x_min":43,"x_max":608,"o":"m 465 707 q 439 683 465 707 q 338 658 413 658 q 210 707 263 658 q 158 824 158 756 q 210 940 158 892 q 338 989 263 989 q 465 940 413 989 q 517 824 517 892 q 465 707 517 756 m 422 351 q 324 450 418 450 q 189 396 250 450 l 85 507 q 190 579 133 554 q 342 604 246 604 q 535 537 461 604 q 608 336 608 469 l 608 0 l 422 0 l 426 82 q 251 -12 365 -12 q 102 33 161 -12 q 43 174 43 78 q 285 351 43 351 l 422 351 m 294 778 q 303 769 294 778 q 338 761 311 761 q 381 778 364 761 q 397 824 397 794 q 381 869 397 853 q 338 886 364 886 q 294 869 311 886 q 278 824 278 853 q 294 778 278 794 m 422 240 l 294 240 q 226 186 226 240 q 307 133 226 133 q 392 156 363 133 q 422 217 422 178 l 422 240 z "},"æ":{"ha":1117,"x_min":43,"x_max":1074,"o":"m 422 349 q 324 450 418 450 q 189 396 250 450 l 85 507 q 190 579 133 554 q 342 604 246 604 q 532 518 471 604 q 749 604 614 604 q 989 501 904 604 q 1063 239 1074 397 l 614 239 q 767 143 642 143 q 915 190 849 143 l 1022 75 q 769 -12 922 -12 q 521 86 604 -12 q 288 -12 446 -12 q 43 174 43 -12 q 285 349 43 349 l 422 349 m 611 349 l 874 349 q 837 424 868 396 q 750 451 806 451 q 611 349 633 451 m 422 239 l 294 239 q 226 186 226 239 q 307 133 226 133 q 392 156 363 133 q 422 217 422 178 l 422 239 z "},"ç":{"ha":665,"x_min":53,"x_max":625,"o":"m 290 -3 q 118 103 183 22 q 53 297 53 185 q 145 517 53 431 q 376 604 238 604 q 625 486 531 604 l 492 378 q 443 423 475 406 q 376 440 411 440 q 279 401 314 440 q 244 297 244 361 q 279 190 244 231 q 376 150 314 150 q 496 206 440 150 l 622 94 q 386 -12 531 -8 l 386 -54 q 474 -101 439 -64 q 510 -199 510 -137 q 465 -296 510 -258 q 360 -333 419 -333 q 196 -250 244 -333 l 285 -196 q 344 -235 306 -235 q 380 -222 365 -235 q 394 -187 394 -210 q 338 -140 394 -140 l 290 -140 l 290 -3 z "},"è":{"ha":747,"x_min":53,"x_max":704,"o":"m 315 694 l 171 956 l 385 956 l 457 694 l 315 694 m 244 239 q 397 143 272 143 q 546 190 479 143 l 653 75 q 400 -12 553 -12 q 148 74 243 -12 q 53 297 53 160 q 147 517 53 431 q 379 604 240 604 q 619 501 535 604 q 693 239 704 399 l 244 239 m 242 347 l 504 347 q 381 451 490 451 q 242 347 264 451 z "},"é":{"ha":747,"x_min":53,"x_max":704,"o":"m 304 694 l 376 956 l 590 956 l 446 694 l 304 694 m 244 239 q 397 143 272 143 q 546 190 479 143 l 653 75 q 400 -12 553 -12 q 148 74 243 -12 q 53 297 53 160 q 147 517 53 431 q 379 604 240 604 q 619 501 535 604 q 693 239 704 399 l 244 239 m 242 347 l 504 347 q 381 451 490 451 q 242 347 264 451 z "},"ê":{"ha":747,"x_min":53,"x_max":704,"o":"m 144 694 l 365 994 l 381 994 l 601 694 l 451 694 l 374 785 l 294 694 l 144 694 m 244 239 q 397 143 272 143 q 546 190 479 143 l 653 75 q 400 -12 553 -12 q 148 74 243 -12 q 53 297 53 160 q 147 517 53 431 q 379 604 240 604 q 619 501 535 604 q 693 239 704 399 l 244 239 m 242 347 l 504 347 q 381 451 490 451 q 242 347 264 451 z "},"ë":{"ha":747,"x_min":53,"x_max":704,"o":"m 599 734 q 583 718 599 734 q 525 703 567 703 q 451 734 483 703 q 419 808 419 765 q 451 883 419 851 q 525 914 483 914 q 599 883 567 914 q 631 808 631 851 q 599 734 631 765 m 296 734 q 280 718 296 734 q 222 703 264 703 q 149 734 181 703 q 117 808 117 765 q 149 883 117 851 q 222 914 181 914 q 296 883 264 914 q 328 808 328 851 q 296 734 328 765 m 244 239 q 397 143 272 143 q 546 190 479 143 l 653 75 q 400 -12 553 -12 q 148 74 243 -12 q 53 297 53 160 q 147 517 53 431 q 379 604 240 604 q 619 501 535 604 q 693 239 704 399 l 244 239 m 242 347 l 504 347 q 381 451 490 451 q 242 347 264 451 z "},"ì":{"ha":349,"x_min":-43,"x_max":268,"o":"m 101 694 l -43 956 l 171 956 l 243 694 l 101 694 m 81 0 l 81 592 l 268 592 l 268 0 l 81 0 z "},"í":{"ha":349,"x_min":81,"x_max":383,"o":"m 97 694 l 169 956 l 383 956 l 239 694 l 97 694 m 81 0 l 81 592 l 268 592 l 268 0 l 81 0 z "},"î":{"ha":349,"x_min":-56,"x_max":401,"o":"m -56 694 l 165 994 l 181 994 l 401 694 l 251 694 l 174 785 l 94 694 l -56 694 m 81 0 l 81 592 l 268 592 l 268 0 l 81 0 z "},"ï":{"ha":349,"x_min":-83,"x_max":431,"o":"m 399 734 q 383 718 399 734 q 325 703 367 703 q 251 734 283 703 q 219 808 219 765 q 251 883 219 851 q 325 914 283 914 q 399 883 367 914 q 431 808 431 851 q 399 734 431 765 m 96 734 q 80 718 96 734 q 22 703 64 703 q -51 734 -19 703 q -83 808 -83 765 q -51 883 -83 851 q 22 914 -19 914 q 96 883 64 914 q 128 808 128 851 q 96 734 128 765 m 81 0 l 81 592 l 268 592 l 268 0 l 81 0 z "},"ð":{"ha":757,"x_min":53,"x_max":704,"o":"m 369 733 l 290 657 l 204 742 l 289 824 q 196 908 246 867 l 293 1026 q 406 935 372 965 l 483 1010 l 569 925 l 492 851 q 704 324 704 621 q 613 76 704 164 q 379 -12 522 -12 q 147 74 240 -12 q 53 294 53 161 q 142 515 53 426 q 346 604 231 604 q 468 571 424 604 q 369 733 440 646 m 281 187 q 300 166 281 187 q 379 146 318 146 q 476 187 440 146 q 513 294 513 228 q 477 403 513 363 q 379 443 442 443 q 281 402 317 443 q 244 294 244 361 q 281 187 244 228 z "},"ñ":{"ha":736,"x_min":74,"x_max":667,"o":"m 257 694 l 131 707 q 178 851 136 801 q 285 901 221 901 q 372 874 328 901 q 392 860 381 868 q 410 849 404 853 q 424 842 417 844 q 439 839 432 839 q 479 901 472 839 l 606 889 q 558 744 600 794 q 451 694 517 694 q 364 722 408 694 q 344 735 356 728 q 326 747 332 743 q 313 754 321 751 q 297 757 304 757 q 257 694 264 757 m 74 0 l 74 592 l 261 592 l 257 494 q 444 604 313 604 q 605 535 543 604 q 667 342 667 465 l 667 0 l 479 0 l 479 329 q 381 433 479 433 q 292 403 324 433 q 261 317 261 372 l 261 0 l 74 0 z "},"ò":{"ha":757,"x_min":53,"x_max":704,"o":"m 301 694 l 157 956 l 371 956 l 443 694 l 301 694 m 611 74 q 565 31 611 74 q 379 -12 518 -12 q 147 74 240 -12 q 53 294 53 161 q 147 517 53 429 q 379 604 240 604 q 611 517 518 604 q 704 294 704 429 q 611 74 704 161 m 281 187 q 300 166 281 187 q 379 146 318 146 q 476 187 440 146 q 513 294 513 228 q 477 403 513 363 q 379 443 442 443 q 281 402 317 443 q 244 294 244 361 q 281 187 244 228 z "},"ó":{"ha":757,"x_min":53,"x_max":704,"o":"m 313 694 l 385 956 l 599 956 l 454 694 l 313 694 m 611 74 q 565 31 611 74 q 379 -12 518 -12 q 147 74 240 -12 q 53 294 53 161 q 147 517 53 429 q 379 604 240 604 q 611 517 518 604 q 704 294 704 429 q 611 74 704 161 m 281 187 q 300 166 281 187 q 379 146 318 146 q 476 187 440 146 q 513 294 513 228 q 477 403 513 363 q 379 443 442 443 q 281 402 317 443 q 244 294 244 361 q 281 187 244 228 z "},"ô":{"ha":757,"x_min":53,"x_max":704,"o":"m 149 694 l 369 994 l 385 994 l 606 694 l 456 694 l 378 785 l 299 694 l 149 694 m 611 74 q 565 31 611 74 q 379 -12 518 -12 q 147 74 240 -12 q 53 294 53 161 q 147 517 53 429 q 379 604 240 604 q 611 517 518 604 q 704 294 704 429 q 611 74 704 161 m 281 187 q 300 166 281 187 q 379 146 318 146 q 476 187 440 146 q 513 294 513 228 q 477 403 513 363 q 379 443 442 443 q 281 402 317 443 q 244 294 244 361 q 281 187 244 228 z "},"õ":{"ha":757,"x_min":53,"x_max":704,"o":"m 267 694 l 140 707 q 188 851 146 801 q 294 901 231 901 q 382 874 338 901 q 402 860 390 868 q 420 849 414 853 q 434 842 426 844 q 449 839 442 839 q 489 901 483 839 l 615 889 q 568 744 610 794 q 461 694 526 694 q 374 722 418 694 q 353 735 365 728 q 336 747 342 743 q 322 754 331 751 q 307 757 314 757 q 267 694 272 757 m 611 74 q 565 31 611 74 q 379 -12 518 -12 q 147 74 240 -12 q 53 294 53 161 q 147 517 53 429 q 379 604 240 604 q 611 517 518 604 q 704 294 704 429 q 611 74 704 161 m 281 187 q 300 166 281 187 q 379 146 318 146 q 476 187 440 146 q 513 294 513 228 q 477 403 513 363 q 379 443 442 443 q 281 402 317 443 q 244 294 244 361 q 281 187 244 228 z "},"ö":{"ha":757,"x_min":53,"x_max":704,"o":"m 603 734 q 587 718 603 734 q 529 703 571 703 q 456 734 488 703 q 424 808 424 765 q 456 883 424 851 q 529 914 488 914 q 603 883 571 914 q 635 808 635 851 q 603 734 635 765 m 300 734 q 284 718 300 734 q 226 703 268 703 q 153 734 185 703 q 121 808 121 765 q 153 883 121 851 q 226 914 185 914 q 300 883 268 914 q 332 808 332 851 q 300 734 332 765 m 611 74 q 565 31 611 74 q 379 -12 518 -12 q 147 74 240 -12 q 53 294 53 161 q 147 517 53 429 q 379 604 240 604 q 611 517 518 604 q 704 294 704 429 q 611 74 704 161 m 281 187 q 300 166 281 187 q 379 146 318 146 q 476 187 440 146 q 513 294 513 228 q 477 403 513 363 q 379 443 442 443 q 281 402 317 443 q 244 294 244 361 q 281 187 244 228 z "},"÷":{"ha":338,"x_min":56,"x_max":290,"o":"m 256 274 q 239 257 256 274 q 174 240 222 240 q 90 274 125 240 q 56 358 56 307 q 90 442 56 408 q 174 475 125 475 q 256 442 221 475 q 290 358 290 408 q 256 274 290 307 z "},"ø":{"ha":757,"x_min":19,"x_max":738,"o":"m 657 456 q 704 294 704 385 q 611 74 704 161 q 379 -12 518 -12 q 176 53 264 -12 l 92 -19 l 19 67 l 100 133 q 53 294 53 207 q 147 517 53 429 q 379 604 240 604 q 581 539 493 604 l 665 611 l 738 524 l 657 456 m 239 251 l 453 432 q 379 450 419 450 q 274 407 314 450 q 235 294 235 364 q 239 251 235 272 m 518 339 l 303 158 q 379 139 335 139 q 483 182 444 139 q 522 294 522 225 q 518 339 522 318 z "},"ù":{"ha":733,"x_min":69,"x_max":660,"o":"m 294 694 l 150 956 l 364 956 l 436 694 l 294 694 m 290 -12 q 131 57 192 -12 q 69 250 69 126 l 69 592 l 257 592 l 257 263 q 356 157 257 157 q 442 188 411 157 q 472 275 472 218 l 472 592 l 660 592 l 660 0 l 472 0 l 476 97 q 290 -12 421 -12 z "},"ú":{"ha":733,"x_min":69,"x_max":660,"o":"m 297 694 l 369 956 l 583 956 l 439 694 l 297 694 m 290 -12 q 131 57 192 -12 q 69 250 69 126 l 69 592 l 257 592 l 257 263 q 356 157 257 157 q 442 188 411 157 q 472 275 472 218 l 472 592 l 660 592 l 660 0 l 472 0 l 476 97 q 290 -12 421 -12 z "},"û":{"ha":733,"x_min":69,"x_max":660,"o":"m 138 694 l 358 994 l 374 994 l 594 694 l 444 694 l 367 785 l 288 694 l 138 694 m 290 -12 q 131 57 192 -12 q 69 250 69 126 l 69 592 l 257 592 l 257 263 q 356 157 257 157 q 442 188 411 157 q 472 275 472 218 l 472 592 l 660 592 l 660 0 l 472 0 l 476 97 q 290 -12 421 -12 z "},"ü":{"ha":733,"x_min":69,"x_max":660,"o":"m 592 734 q 576 718 592 734 q 518 703 560 703 q 444 734 476 703 q 413 808 413 765 q 444 883 413 851 q 518 914 476 914 q 592 883 560 914 q 624 808 624 851 q 592 734 624 765 m 289 734 q 273 718 289 734 q 215 703 257 703 q 142 734 174 703 q 110 808 110 765 q 142 883 110 851 q 215 914 174 914 q 289 883 257 914 q 321 808 321 851 q 289 734 321 765 m 290 -12 q 131 57 192 -12 q 69 250 69 126 l 69 592 l 257 592 l 257 263 q 356 157 257 157 q 442 188 411 157 q 472 275 472 218 l 472 592 l 660 592 l 660 0 l 472 0 l 476 97 q 290 -12 421 -12 z "},"ý":{"ha":681,"x_min":13,"x_max":668,"o":"m 283 694 l 356 956 l 569 956 l 425 694 l 283 694 m 93 -294 l 247 56 l 13 592 l 219 592 l 304 364 q 324 301 314 339 q 340 236 335 263 l 346 211 q 386 364 364 310 l 478 592 l 668 592 l 281 -294 l 93 -294 z "},"þ":{"ha":771,"x_min":79,"x_max":717,"o":"m 79 -294 l 79 1003 l 267 1003 l 267 508 q 453 604 331 604 q 640 518 564 604 q 717 297 717 432 q 638 76 717 164 q 449 -12 560 -12 q 267 79 318 -12 l 267 -294 l 79 -294 m 394 151 q 489 190 454 151 q 524 297 524 228 q 489 401 524 363 q 394 439 454 439 q 297 401 333 439 q 261 297 261 363 q 297 190 261 228 q 394 151 333 151 z "},"ÿ":{"ha":681,"x_min":13,"x_max":668,"o":"m 564 734 q 548 718 564 734 q 490 703 532 703 q 417 734 449 703 q 385 808 385 765 q 417 883 385 851 q 490 914 449 914 q 564 883 532 914 q 596 808 596 851 q 564 734 596 765 m 261 734 q 245 718 261 734 q 188 703 229 703 q 114 734 146 703 q 82 808 82 765 q 114 883 82 851 q 188 914 146 914 q 261 883 229 914 q 293 808 293 851 q 261 734 293 765 m 93 -294 l 247 56 l 13 592 l 219 592 l 304 364 q 324 301 314 339 q 340 236 335 263 l 346 211 q 386 364 364 310 l 478 592 l 668 592 l 281 -294 l 93 -294 z "},"ı":{"ha":349,"x_min":81,"x_max":268,"o":"m 81 0 l 81 592 l 268 592 l 268 0 l 81 0 z "},"Ł":{"ha":793,"x_min":10,"x_max":735,"o":"m 113 0 l 113 246 l 10 211 l 10 381 l 113 415 l 113 944 l 307 944 l 307 483 l 557 569 l 557 400 l 307 314 l 307 171 l 735 171 l 735 0 l 113 0 z "},"ł":{"ha":397,"x_min":11,"x_max":393,"o":"m 106 0 l 106 260 l 11 207 l 11 388 l 106 440 l 106 1003 l 292 1003 l 292 544 l 393 601 l 393 421 l 292 364 l 292 0 l 106 0 z "},"Œ":{"ha":1385,"x_min":65,"x_max":1303,"o":"m 563 0 q 205 132 344 0 q 65 472 65 264 q 204 813 65 681 q 563 944 343 944 l 1283 944 l 1283 774 l 853 774 l 853 474 l 1232 474 l 1232 307 l 853 307 l 853 171 l 1303 171 l 1303 0 l 563 0 m 572 171 l 658 171 l 658 774 l 572 774 q 344 692 421 774 q 267 472 267 610 q 344 253 267 335 q 572 171 421 171 z "},"œ":{"ha":1204,"x_min":53,"x_max":1160,"o":"m 701 239 q 854 143 729 143 q 1003 190 936 143 l 1110 75 q 857 -12 1010 -12 q 608 90 693 -12 q 379 -12 532 -12 q 147 74 240 -12 q 53 294 53 161 q 147 517 53 429 q 379 604 240 604 q 607 503 529 604 q 836 604 685 604 q 1076 501 992 604 q 1150 239 1160 397 l 701 239 m 699 347 l 961 347 q 838 451 947 451 q 699 347 721 451 m 281 187 q 300 166 281 187 q 379 146 318 146 q 476 187 440 146 q 513 294 513 228 q 477 403 513 363 q 379 443 442 443 q 281 402 317 443 q 244 294 244 361 q 281 187 244 228 z "},"Š":{"ha":746,"x_min":17,"x_max":693,"o":"m 347 1013 l 126 1313 l 276 1313 l 354 1222 l 433 1313 l 583 1313 l 363 1013 l 347 1013 m 371 -12 q 152 42 242 -12 q 17 186 63 96 l 175 278 q 367 160 247 160 q 463 187 426 160 q 499 256 499 214 q 479 311 499 288 q 435 348 460 335 q 357 385 411 361 l 308 406 q 134 522 193 456 q 75 699 75 588 q 153 883 75 810 q 360 956 232 956 q 522 919 454 956 q 636 800 589 882 l 485 703 q 360 786 439 786 q 292 763 318 786 q 267 703 267 739 q 293 638 267 661 q 386 585 319 614 l 435 564 q 631 440 569 506 q 693 258 693 374 q 603 59 693 131 q 371 -12 514 -12 z "},"š":{"ha":585,"x_min":31,"x_max":543,"o":"m 274 668 l 53 968 l 203 968 l 281 878 l 360 968 l 510 968 l 289 668 l 274 668 m 300 -12 q 31 100 125 -12 l 140 197 q 288 135 206 135 q 368 171 368 135 q 366 183 368 178 q 358 192 364 188 q 347 199 353 196 q 327 205 340 201 q 303 211 314 208 q 272 219 292 214 q 235 228 251 224 q 64 417 64 272 q 128 558 64 511 q 293 604 192 604 q 508 522 429 604 l 408 415 q 294 460 356 460 q 231 425 231 460 q 249 396 231 404 q 324 375 268 388 q 349 369 340 371 q 543 185 543 325 q 300 -12 543 -12 z "},"Ÿ":{"ha":947,"x_min":29,"x_max":919,"o":"m 699 1078 q 683 1063 699 1078 q 625 1047 667 1047 q 551 1078 583 1047 q 519 1153 519 1110 q 551 1227 519 1196 q 625 1258 583 1258 q 699 1227 667 1258 q 731 1153 731 1196 q 699 1078 731 1110 m 396 1078 q 380 1063 396 1078 q 322 1047 364 1047 q 249 1078 281 1047 q 217 1153 217 1110 q 249 1227 217 1196 q 322 1258 281 1258 q 396 1227 364 1258 q 428 1153 428 1196 q 396 1078 428 1110 m 388 0 l 388 300 l 29 944 l 244 944 l 411 640 q 447 566 428 611 q 476 492 465 521 l 488 461 q 561 640 525 572 l 721 944 l 919 944 l 583 314 l 583 0 l 388 0 z "},"Ž":{"ha":843,"x_min":38,"x_max":771,"o":"m 426 1013 l 206 1313 l 356 1313 l 433 1222 l 513 1313 l 663 1313 l 442 1013 l 426 1013 m 38 0 l 38 17 l 471 774 l 114 774 l 114 944 l 771 944 l 771 928 l 339 171 l 747 171 l 747 0 l 38 0 z "},"ž":{"ha":619,"x_min":32,"x_max":575,"o":"m 308 668 l 88 968 l 238 968 l 315 878 l 394 968 l 544 968 l 324 668 l 308 668 m 32 0 l 32 15 l 289 440 l 64 440 l 64 592 l 575 592 l 575 576 l 313 151 l 553 151 l 553 0 l 32 0 z "},"ƒ":{"ha":567,"x_min":46,"x_max":581,"o":"m 67 -294 l 129 251 l 46 251 l 46 401 l 146 401 l 172 625 q 404 858 199 858 q 581 774 518 858 l 469 667 q 415 700 449 700 q 357 640 365 700 l 329 401 l 476 401 l 476 251 l 313 251 l 250 -294 l 67 -294 z "},"ˆ":{"ha":694,"x_min":118,"x_max":575,"o":"m 118 694 l 339 994 l 354 994 l 575 694 l 425 694 l 347 785 l 268 694 l 118 694 z "},"ˇ":{"ha":694,"x_min":119,"x_max":576,"o":"m 340 668 l 119 968 l 269 968 l 347 878 l 426 968 l 576 968 l 356 668 l 340 668 z "},"˘":{"ha":694,"x_min":122,"x_max":572,"o":"m 504 749 q 474 722 504 749 q 347 694 444 694 q 190 749 250 694 q 122 889 131 803 l 265 910 q 347 831 276 831 q 429 910 418 831 l 572 889 q 504 749 564 803 z "},"˙":{"ha":694,"x_min":242,"x_max":453,"o":"m 421 734 q 405 718 421 734 q 347 703 389 703 q 274 734 306 703 q 242 808 242 765 q 274 883 242 851 q 347 914 306 914 q 421 883 389 914 q 453 808 453 851 q 421 734 453 765 z "},"˚":{"ha":694,"x_min":168,"x_max":526,"o":"m 474 707 q 448 683 474 707 q 347 658 422 658 q 220 707 272 658 q 168 824 168 756 q 220 940 168 892 q 347 989 272 989 q 474 940 422 989 q 526 824 526 892 q 474 707 526 756 m 304 778 q 313 769 304 778 q 347 761 321 761 q 390 778 374 761 q 407 824 407 794 q 390 869 407 853 q 347 886 374 886 q 304 869 321 886 q 288 824 288 853 q 304 778 288 794 z "},"˛":{"ha":694,"x_min":189,"x_max":497,"o":"m 338 -333 q 231 -297 274 -333 q 189 -193 189 -261 q 244 -62 189 -132 l 293 0 l 403 0 l 346 -96 q 310 -190 310 -157 q 349 -231 310 -231 q 406 -194 382 -231 l 497 -247 q 338 -333 447 -333 z "},"˜":{"ha":694,"x_min":110,"x_max":585,"o":"m 236 694 l 110 707 q 158 851 115 801 q 264 901 200 901 q 351 874 307 901 q 372 860 360 868 q 390 849 383 853 q 403 842 396 844 q 418 839 411 839 q 458 901 453 839 l 585 889 q 538 744 579 794 q 431 694 496 694 q 343 722 388 694 q 323 735 335 728 q 306 747 311 743 q 292 754 300 751 q 276 757 283 757 q 236 694 242 757 z "},"˝":{"ha":694,"x_min":149,"x_max":671,"o":"m 406 694 l 476 956 l 671 956 l 547 694 l 406 694 m 149 694 l 219 956 l 414 956 l 290 694 l 149 694 z "},"Δ":{"ha":338,"x_min":56,"x_max":290,"o":"m 256 274 q 239 257 256 274 q 174 240 222 240 q 90 274 125 240 q 56 358 56 307 q 90 442 56 408 q 174 475 125 475 q 256 442 221 475 q 290 358 290 408 q 256 274 290 307 z "},"∆":{"ha":338,"x_min":56,"x_max":290,"o":"m 256 274 q 239 257 256 274 q 174 240 222 240 q 90 274 125 240 q 56 358 56 307 q 90 442 56 408 q 174 475 125 475 q 256 442 221 475 q 290 358 290 408 q 256 274 290 307 z "},"Ω":{"ha":338,"x_min":56,"x_max":290,"o":"m 256 274 q 239 257 256 274 q 174 240 222 240 q 90 274 125 240 q 56 358 56 307 q 90 442 56 408 q 174 475 125 475 q 256 442 221 475 q 290 358 290 408 q 256 274 290 307 z "},"Ω":{"ha":338,"x_min":56,"x_max":290,"o":"m 256 274 q 239 257 256 274 q 174 240 222 240 q 90 274 125 240 q 56 358 56 307 q 90 442 56 408 q 174 475 125 475 q 256 442 221 475 q 290 358 290 408 q 256 274 290 307 z "},"π":{"ha":338,"x_min":56,"x_max":290,"o":"m 256 274 q 239 257 256 274 q 174 240 222 240 q 90 274 125 240 q 56 358 56 307 q 90 442 56 408 q 174 475 125 475 q 256 442 221 475 q 290 358 290 408 q 256 274 290 307 z "},"–":{"ha":564,"x_min":42,"x_max":522,"o":"m 42 232 l 42 399 l 522 399 l 522 232 l 42 232 z "},"—":{"ha":913,"x_min":42,"x_max":871,"o":"m 42 232 l 42 399 l 871 399 l 871 232 l 42 232 z "},"‘":{"ha":336,"x_min":56,"x_max":281,"o":"m 169 574 q 90 606 124 574 q 56 683 56 638 q 97 803 56 731 l 181 944 l 271 944 l 218 786 q 281 685 281 757 q 247 606 281 638 q 169 574 214 574 z "},"’":{"ha":336,"x_min":56,"x_max":281,"o":"m 65 583 l 118 742 q 56 843 56 771 q 89 922 56 890 q 167 954 122 954 q 247 922 213 954 q 281 844 281 890 q 239 725 281 797 l 156 583 l 65 583 z "},"‚":{"ha":336,"x_min":56,"x_max":281,"o":"m 65 -142 l 118 17 q 56 118 56 46 q 89 197 56 165 q 167 229 122 229 q 247 197 213 229 q 281 119 281 165 q 239 0 281 72 l 156 -142 l 65 -142 z "},"“":{"ha":638,"x_min":56,"x_max":582,"o":"m 471 574 q 391 606 425 574 q 357 683 357 638 q 399 803 357 731 l 482 944 l 572 944 l 519 786 q 582 685 582 757 q 549 606 582 638 q 471 574 515 574 m 169 574 q 90 606 124 574 q 56 683 56 638 q 97 803 56 731 l 181 944 l 271 944 l 218 786 q 281 685 281 757 q 247 606 281 638 q 169 574 214 574 z "},"”":{"ha":638,"x_min":56,"x_max":582,"o":"m 367 583 l 419 742 q 357 843 357 771 q 390 922 357 890 q 468 954 424 954 q 548 922 514 954 q 582 844 582 890 q 540 725 582 797 l 457 583 l 367 583 m 65 583 l 118 742 q 56 843 56 771 q 89 922 56 890 q 167 954 122 954 q 247 922 213 954 q 281 844 281 890 q 239 725 281 797 l 156 583 l 65 583 z "},"„":{"ha":638,"x_min":56,"x_max":582,"o":"m 367 -142 l 419 17 q 357 118 357 46 q 390 197 357 165 q 468 229 424 229 q 548 197 514 229 q 582 119 582 165 q 540 0 582 72 l 457 -142 l 367 -142 m 65 -142 l 118 17 q 56 118 56 46 q 89 197 56 165 q 167 229 122 229 q 247 197 213 229 q 281 119 281 165 q 239 0 281 72 l 156 -142 l 65 -142 z "},"†":{"ha":503,"x_min":43,"x_max":460,"o":"m 167 335 l 167 656 l 43 656 l 43 810 l 167 810 l 167 944 l 336 944 l 336 810 l 460 810 l 460 656 l 336 656 l 336 335 l 167 335 z "},"‡":{"ha":503,"x_min":43,"x_max":460,"o":"m 167 335 l 167 469 l 43 469 l 43 607 l 167 607 l 167 672 l 43 672 l 43 810 l 167 810 l 167 944 l 336 944 l 336 810 l 460 810 l 460 672 l 336 672 l 336 607 l 460 607 l 460 469 l 336 469 l 336 335 l 167 335 z "},"•":{"ha":385,"x_min":43,"x_max":342,"o":"m 297 280 q 274 258 297 280 q 192 236 251 236 q 88 280 132 236 q 43 386 43 324 q 87 493 43 450 q 192 536 131 536 q 297 493 253 536 q 342 386 342 450 q 297 280 342 324 z "},"…":{"ha":1026,"x_min":56,"x_max":971,"o":"m 937 25 q 920 8 937 25 q 854 -8 903 -8 q 771 25 806 -8 q 736 110 736 58 q 771 193 736 160 q 854 226 806 226 q 936 193 901 226 q 971 110 971 160 q 937 25 971 58 m 597 25 q 580 8 597 25 q 514 -8 563 -8 q 431 25 465 -8 q 396 110 396 58 q 431 193 396 160 q 514 226 465 226 q 596 193 561 226 q 631 110 631 160 q 597 25 631 58 m 256 25 q 239 8 256 25 q 174 -8 222 -8 q 90 25 125 -8 q 56 110 56 58 q 90 193 56 160 q 174 226 125 226 q 256 193 221 226 q 290 110 290 160 q 256 25 290 58 z "},"‰":{"ha":1700,"x_min":35,"x_max":1665,"o":"m 263 301 q 101 363 167 301 q 35 519 35 425 q 101 675 35 613 q 263 738 168 738 q 423 675 357 738 q 489 519 489 613 q 423 363 489 425 q 263 301 357 301 m 272 0 l 731 725 l 915 725 l 457 0 l 272 0 m 1439 -12 q 1277 49 1343 -12 q 1211 206 1211 111 q 1278 361 1211 299 q 1439 424 1344 424 q 1599 361 1533 424 q 1665 206 1665 299 q 1599 49 1665 111 q 1439 -12 1533 -12 m 926 -12 q 765 49 831 -12 q 699 206 699 111 q 765 361 699 299 q 926 424 832 424 q 1087 361 1021 424 q 1153 206 1153 299 q 1087 49 1153 111 q 926 -12 1021 -12 m 212 463 q 223 452 212 463 q 263 442 233 442 q 313 463 292 442 q 335 519 335 485 q 313 576 335 554 q 263 597 292 597 q 212 576 233 597 q 190 519 190 554 q 212 463 190 485 m 1388 149 q 1399 139 1388 149 q 1439 128 1410 128 q 1490 149 1468 128 q 1511 206 1511 171 q 1490 262 1511 240 q 1439 283 1468 283 q 1388 262 1410 283 q 1367 206 1367 240 q 1388 149 1367 171 m 876 149 q 886 139 876 149 q 926 128 897 128 q 977 149 956 128 q 999 206 999 171 q 977 262 999 240 q 926 283 956 283 q 876 262 897 283 q 854 206 854 240 q 876 149 854 171 z "},"‹":{"ha":401,"x_min":44,"x_max":357,"o":"m 176 44 l 44 278 l 44 289 l 176 518 l 357 518 l 221 283 l 357 44 l 176 44 z "},"›":{"ha":401,"x_min":44,"x_max":357,"o":"m 44 44 l 181 279 l 44 518 l 225 518 l 357 285 l 357 274 l 225 44 l 44 44 z "},"⁄":{"ha":588,"x_min":-28,"x_max":615,"o":"m -28 0 l 431 725 l 615 725 l 157 0 l -28 0 z "},"∕":{"ha":588,"x_min":-28,"x_max":615,"o":"m -28 0 l 431 725 l 615 725 l 157 0 l -28 0 z "},"€":{"ha":831,"x_min":36,"x_max":790,"o":"m 117 393 l 36 393 l 36 513 l 144 513 q 281 676 188 615 q 492 738 374 738 q 654 708 588 738 q 775 613 721 679 l 646 504 q 492 578 588 578 q 346 513 399 578 l 519 513 l 519 393 l 301 393 q 300 364 300 383 q 301 335 300 344 l 519 335 l 519 215 l 346 215 q 492 149 400 149 q 653 233 597 149 l 790 131 q 667 21 736 54 q 492 -12 597 -12 q 281 50 375 -12 q 144 215 188 113 l 36 215 l 36 335 l 117 335 q 115 364 115 344 q 117 393 115 383 z "},"™":{"ha":988,"x_min":49,"x_max":910,"o":"m 474 525 l 474 950 l 488 950 l 692 746 l 896 950 l 910 950 l 910 525 l 785 525 l 785 696 l 699 597 l 686 597 l 599 696 l 599 525 l 474 525 m 161 525 l 161 842 l 49 842 l 49 944 l 401 944 l 401 842 l 289 842 l 289 525 l 161 525 z "},"∂":{"ha":338,"x_min":56,"x_max":290,"o":"m 256 274 q 239 257 256 274 q 174 240 222 240 q 90 274 125 240 q 56 358 56 307 q 90 442 56 408 q 174 475 125 475 q 256 442 221 475 q 290 358 290 408 q 256 274 290 307 z "},"∏":{"ha":338,"x_min":56,"x_max":290,"o":"m 256 274 q 239 257 256 274 q 174 240 222 240 q 90 274 125 240 q 56 358 56 307 q 90 442 56 408 q 174 475 125 475 q 256 442 221 475 q 290 358 290 408 q 256 274 290 307 z "},"∑":{"ha":1111,"x_min":61,"x_max":1044,"o":"m 660 18 q 794 -43 724 -43 q 906 17 860 -43 l 1032 -93 q 796 -212 946 -212 q 755 -209 775 -212 q 719 -203 735 -206 q 682 -190 703 -200 q 650 -175 661 -179 q 618 -156 639 -171 q 590 -136 597 -140 q 560 -112 582 -132 q 534 -90 538 -93 q 507 -65 531 -86 q 482 -42 483 -43 q 433 1 450 -12 q 388 28 415 15 q 336 42 361 42 q 190 -53 256 42 l 61 56 q 183 161 108 129 q 67 474 67 292 q 208 819 67 681 q 556 957 350 957 q 903 819 761 957 q 1044 474 1044 681 q 937 172 1044 296 q 660 18 829 49 m 347 255 q 388 212 347 255 q 556 169 428 169 q 764 255 683 169 q 844 474 844 340 q 764 695 844 607 q 556 783 683 783 q 347 695 428 783 q 267 474 267 607 q 347 255 267 340 z "},"−":{"ha":338,"x_min":56,"x_max":290,"o":"m 256 274 q 239 257 256 274 q 174 240 222 240 q 90 274 125 240 q 56 358 56 307 q 90 442 56 408 q 174 475 125 475 q 256 442 221 475 q 290 358 290 408 q 256 274 290 307 z "},"√":{"ha":338,"x_min":56,"x_max":290,"o":"m 256 274 q 239 257 256 274 q 174 240 222 240 q 90 274 125 240 q 56 358 56 307 q 90 442 56 408 q 174 475 125 475 q 256 442 221 475 q 290 358 290 408 q 256 274 290 307 z "},"∫":{"ha":338,"x_min":56,"x_max":290,"o":"m 256 274 q 239 257 256 274 q 174 240 222 240 q 90 274 125 240 q 56 358 56 307 q 90 442 56 408 q 174 475 125 475 q 256 442 221 475 q 290 358 290 408 q 256 274 290 307 z "},"≈":{"ha":338,"x_min":56,"x_max":290,"o":"m 256 274 q 239 257 256 274 q 174 240 222 240 q 90 274 125 240 q 56 358 56 307 q 90 442 56 408 q 174 475 125 475 q 256 442 221 475 q 290 358 290 408 q 256 274 290 307 z "},"≤":{"ha":338,"x_min":56,"x_max":290,"o":"m 256 274 q 239 257 256 274 q 174 240 222 240 q 90 274 125 240 q 56 358 56 307 q 90 442 56 408 q 174 475 125 475 q 256 442 221 475 q 290 358 290 408 q 256 274 290 307 z "},"≥":{"ha":338,"x_min":56,"x_max":290,"o":"m 256 274 q 239 257 256 274 q 174 240 222 240 q 90 274 125 240 q 56 358 56 307 q 90 442 56 408 q 174 475 125 475 q 256 442 221 475 q 290 358 290 408 q 256 274 290 307 z "},"◊":{"ha":338,"x_min":56,"x_max":290,"o":"m 256 274 q 239 257 256 274 q 174 240 222 240 q 90 274 125 240 q 56 358 56 307 q 90 442 56 408 q 174 475 125 475 q 256 442 221 475 q 290 358 290 408 q 256 274 290 307 z "},"ﬁ":{"ha":810,"x_min":43,"x_max":754,"o":"m 719 724 q 702 707 719 724 q 636 690 685 690 q 552 724 588 690 q 517 808 517 757 q 552 892 517 858 q 636 925 588 925 q 719 892 685 925 q 754 808 754 858 q 719 724 754 757 m 142 0 l 142 436 l 43 436 l 43 592 l 142 592 l 142 790 q 360 1021 142 1021 q 515 967 453 1021 l 428 835 q 378 853 407 853 q 329 793 329 853 l 329 592 l 729 592 l 729 0 l 542 0 l 542 436 l 329 436 l 329 0 l 142 0 z "},"ﬂ":{"ha":810,"x_min":43,"x_max":729,"o":"m 142 0 l 142 436 l 43 436 l 43 592 l 142 592 l 142 725 q 225 942 142 864 q 435 1021 308 1021 q 646 948 563 1021 q 729 740 729 875 l 729 0 l 542 0 l 542 731 q 435 853 542 853 q 329 731 329 853 l 329 592 l 467 592 l 467 436 l 329 436 l 329 0 l 142 0 z "}}}
